<?xml version="1.0" encoding="utf-8"?>
<!-- Generator: Adobe Illustrator 26.2.1, SVG Export Plug-In . SVG Version: 6.00 Build 0)  -->
<svg version="1.1" id="Layer_1" xmlns="http://www.w3.org/2000/svg" xmlns:xlink="http://www.w3.org/1999/xlink" x="0px" y="0px"
	 viewBox="0 0 169.6 49.9" style="enable-background:new 0 0 169.6 49.9;" xml:space="preserve">
<style type="text/css">
	.st0{fill:#EDB935;}
	.st1{fill:url(#SVGID_1_);}
	.st2{fill:#E1BFA6;}
	.st3{fill:#F9DB41;}
	.st4{fill:#FEE84E;}
	.st5{fill:#FFFFFF;}
	.st6{fill:url(#SVGID_00000000182338700001971720000003874990986150946990_);}
	.st7{fill:url(#SVGID_00000100364880094560288620000006956062211440479369_);}
	.st8{fill:url(#SVGID_00000081646591211951104140000003496100460767997589_);}
	.st9{fill:url(#SVGID_00000173123901127599045530000010819607892489553086_);}
	.st10{fill:url(#SVGID_00000042706069578594860020000011830651230803324607_);}
	.st11{fill:url(#SVGID_00000142134013270547235340000015523996254011401391_);}
	.st12{fill:url(#SVGID_00000163068362825698345580000017054821054377106049_);}
	.st13{fill:url(#SVGID_00000091695875889280884830000012122803373142466751_);}
</style>
<g>
	<path class="st0" d="M11.1,13.4c0,0,2.4,3.8,7.7,0.3c0,0,4.2-3.6,6.1-1.8c0.4,0.4,0.6,0.9,0.5,1.4c0,0.5-0.1,1.2-0.4,1.7
		c0,0-1.6,2.8-4.6,2.8c0,0-1.8-0.5-0.7-2c0,0,0.9-1.7-0.5-1.6c0,0-1.3,0.2-2.1,0.9c0,0-0.3,0.6,0.2,0.8c0,0,0.8,0.5,0.4,1.2
		c-0.1,0.3-0.4,0.5-0.7,0.5c-1.9,0.2-3-0.7-3.3-0.8C13.8,16.9,11.6,16,11.1,13.4z"/>
	<linearGradient id="SVGID_1_" gradientUnits="userSpaceOnUse" x1="-2.728484e-12" y1="34.4316" x2="31.0849" y2="34.4316">
		<stop  offset="0" style="stop-color:#FEE84E"/>
		<stop  offset="0.2791" style="stop-color:#EDBB36"/>
		<stop  offset="0.6276" style="stop-color:#FFE74D"/>
		<stop  offset="1" style="stop-color:#EFBD38"/>
	</linearGradient>
	<path class="st1" d="M18.6,19.8c0,0,1.5-1.3,2.6-0.5c0,0,0.9,0.4,0.4,2c0,0-1.3,1.2-1.1,2.2c0,0-0.3,0.3,1.9,1.6c0,0,2.2,1.5,1,5.1
		c0,0-0.3,1.4-2.7,4.6c0,0-1.4,1.9-1.6,4.7c0,0,0,2.3,1.3,3c0,0-0.8-2.9,0.1-5.5c0,0,1.2-2.6,1.9-1.9c0,0,1,4.2,3.1,5.9
		c0,0,0.3,0.4-0.1,0.5c0,0-2.1,1.6-0.3,4c0,0,1.5,3,5.9,4.4c0,0-7,0.5-11.4-1.3c0,0-4.7-2.2-6.4-5.8c0,0-1.9-3.7-3.2-2.9
		c0,0,0.1,3.2-0.1,3.4c0,0-1.7,0.7-3.1-2.1c0,0-2.5-6-4.7-5.5c0,0-0.1,2.1,0.2,2.8c0,0-2.4,0-2.4-2.4c0,0-0.3-2.3,2.1-2.8
		c0,0,10-0.2,10.7-0.3c0,0,5.6-0.5,6.2-4.3c0,0,0-0.3-0.3-0.1c0,0-2,2.2-3.9,2.7c0,0-0.9-1.8-0.1-4.1c0,0,0.4-1.2,3.5-0.8
		c0,0,0.5-0.4-0.3-0.8l-2.4,0l-4-3.3l1.2-1l3.6,3.6c0,0,1.3,0.5,1-0.9c0,0,0-1-1.8-2.5c0,0-1-1.3,0.3-2.3
		C16,19.1,17.6,18.5,18.6,19.8z"/>
	<path class="st0" d="M15.9,12.8c0,0,0-2.3,1.7-2.4c0,0,1.4-0.3,2.7,0.6c0,0,0.6,0.6-0.2,0.7c0,0-1,0-2.3,0.7
		C17.8,12.4,16.8,13.1,15.9,12.8z"/>
	<rect x="18.1" y="15.7" class="st2" width="1" height="0.4"/>
	<polygon class="st3" points="15.7,0.3 16,0.8 16.6,0.9 16.2,1.4 16.3,2 15.7,1.7 15.2,2 15.3,1.4 14.9,0.9 15.5,0.8 	"/>
	<polygon class="st4" points="18.4,0 18.7,0.5 19.3,0.6 18.9,1.1 19,1.7 18.4,1.4 17.9,1.7 18,1.1 17.6,0.6 18.2,0.5 	"/>
	<polygon class="st4" points="21,0.1 21.3,0.7 21.9,0.8 21.5,1.2 21.6,1.8 21,1.5 20.5,1.8 20.6,1.2 20.2,0.8 20.8,0.7 	"/>
	<polygon class="st4" points="23.7,0.7 24,1.2 24.6,1.3 24.1,1.7 24.2,2.3 23.7,2.1 23.2,2.3 23.3,1.7 22.8,1.3 23.4,1.2 	"/>
	<polygon class="st4" points="26.3,1.6 26.5,2.2 27.1,2.3 26.7,2.7 26.8,3.3 26.3,3 25.7,3.3 25.8,2.7 25.4,2.3 26,2.2 	"/>
	<polygon class="st4" points="28.6,3 28.9,3.5 29.5,3.6 29.1,4 29.2,4.6 28.6,4.3 28.1,4.6 28.2,4 27.8,3.6 28.4,3.5 	"/>
	<polygon class="st4" points="30.7,4.6 31,5.2 31.6,5.3 31.1,5.7 31.2,6.3 30.7,6 30.1,6.3 30.3,5.7 29.8,5.3 30.4,5.2 	"/>
	<polygon class="st4" points="32.6,6.5 32.9,7 33.5,7.1 33,7.5 33.1,8.1 32.6,7.9 32.1,8.1 32.2,7.5 31.7,7.1 32.3,7 	"/>
	<polygon class="st4" points="34,8.5 34.2,9 34.8,9.1 34.4,9.5 34.5,10.2 34,9.9 33.4,10.2 33.5,9.5 33.1,9.1 33.7,9 	"/>
	<polygon class="st4" points="35.1,10.9 35.3,11.4 35.8,11.4 35.5,11.8 35.5,12.3 35.1,12 34.7,12.3 34.8,11.8 34.4,11.4 34.9,11.4 
			"/>
	<polygon class="st4" points="35.7,13.4 35.9,13.8 36.3,13.8 36,14.1 36.1,14.5 35.7,14.3 35.4,14.5 35.5,14.1 35.2,13.8 35.6,13.8 
			"/>
	<polygon class="st4" points="36.1,16.1 36.3,16.4 36.6,16.4 36.3,16.6 36.4,17 36.1,16.8 35.8,17 35.9,16.6 35.7,16.4 36,16.4 	"/>
	<polygon class="st4" points="23.1,5.4 23.2,5.7 23.5,5.8 23.3,6 23.3,6.3 23.1,6.1 22.8,6.3 22.8,6 22.6,5.8 22.9,5.7 	"/>
	<polygon class="st4" points="24.9,6.5 25,6.7 25.2,6.8 25,7 25.1,7.2 24.9,7.1 24.6,7.2 24.7,7 24.5,6.8 24.7,6.7 	"/>
	<polygon class="st3" points="11.9,8.2 12.1,8.5 12.3,8.5 12.1,8.7 12.2,8.9 11.9,8.8 11.7,8.9 11.8,8.7 11.6,8.5 11.8,8.5 	"/>
	<polygon class="st4" points="13.3,7.7 13.5,8 13.7,8 13.5,8.2 13.6,8.4 13.3,8.3 13.1,8.4 13.2,8.2 13,8 13.2,8 	"/>
	<polygon class="st3" points="9.6,11.3 9.7,11.5 9.9,11.6 9.8,11.8 9.8,12 9.6,11.9 9.3,12 9.4,11.8 9.2,11.6 9.5,11.5 	"/>
	<polygon class="st3" points="8.7,12 8.9,12.3 9.1,12.3 8.9,12.5 9,12.7 8.7,12.6 8.5,12.7 8.6,12.5 8.4,12.3 8.6,12.3 	"/>
	<polygon class="st4" points="26.1,7.8 26.2,8 26.4,8 26.2,8.2 26.3,8.4 26.1,8.3 25.9,8.4 25.9,8.2 25.7,8 26,8 	"/>
	<polygon class="st4" points="14.8,7.6 14.9,7.8 15.2,7.8 15,8 15,8.2 14.8,8.1 14.6,8.2 14.7,8 14.5,7.8 14.7,7.8 	"/>
	<polygon class="st3" points="11.7,9.9 11.8,10.1 12,10.1 11.8,10.3 11.9,10.5 11.7,10.4 11.4,10.5 11.5,10.3 11.3,10.1 11.6,10.1 	
		"/>
	<polygon class="st3" points="10.5,10.6 10.6,10.8 10.9,10.9 10.7,11 10.7,11.3 10.5,11.1 10.3,11.3 10.4,11 10.2,10.9 10.4,10.8 	
		"/>
	<polygon class="st4" points="29.2,6.9 29.4,7.3 29.9,7.4 29.5,7.7 29.6,8.2 29.2,8 28.7,8.2 28.8,7.7 28.5,7.4 28.9,7.3 	"/>
	<polygon class="st4" points="27.4,5.3 27.6,5.8 28.1,5.8 27.8,6.2 27.8,6.7 27.4,6.4 27,6.7 27.1,6.2 26.7,5.8 27.2,5.8 	"/>
	<polygon class="st4" points="30.4,8.7 30.6,9 31,9.1 30.7,9.4 30.8,9.7 30.4,9.6 30.1,9.7 30.2,9.4 29.9,9.1 30.3,9 	"/>
	<polygon class="st4" points="21.3,4.5 21.5,4.8 21.8,4.9 21.6,5.2 21.6,5.5 21.3,5.4 21,5.5 21,5.2 20.7,4.9 21.1,4.8 	"/>
	<polygon class="st4" points="31.6,10.6 31.7,10.9 32,10.9 31.8,11.2 31.8,11.5 31.6,11.3 31.3,11.5 31.3,11.2 31.1,10.9 31.4,10.9 
			"/>
	<polygon class="st4" points="25.7,4.1 25.9,4.5 26.4,4.6 26.1,4.9 26.1,5.4 25.7,5.2 25.3,5.4 25.4,4.9 25,4.6 25.5,4.5 	"/>
	<polygon class="st4" points="23.6,3.1 23.8,3.5 24.3,3.6 23.9,3.9 24,4.4 23.6,4.2 23.1,4.4 23.2,3.9 22.9,3.6 23.4,3.5 	"/>
	<polygon class="st4" points="21.3,2.4 21.5,2.8 22,2.9 21.6,3.2 21.7,3.7 21.3,3.5 20.9,3.7 20.9,3.2 20.6,2.9 21.1,2.8 	"/>
	<polygon class="st4" points="19.1,2.1 19.3,2.5 19.8,2.6 19.4,2.9 19.5,3.4 19.1,3.2 18.7,3.4 18.7,2.9 18.4,2.6 18.9,2.5 	"/>
	<polygon class="st4" points="16.8,2 17,2.5 17.4,2.5 17.1,2.9 17.2,3.4 16.8,3.1 16.3,3.4 16.4,2.9 16.1,2.5 16.5,2.5 	"/>
	<polygon class="st3" points="14.5,2.4 14.7,2.8 15.2,2.9 14.9,3.2 15,3.7 14.5,3.5 14.1,3.7 14.2,3.2 13.8,2.9 14.3,2.8 	"/>
	<polygon class="st4" points="15.4,3.9 15.6,4.3 16,4.3 15.7,4.6 15.8,5 15.4,4.8 15.1,5 15.1,4.6 14.8,4.3 15.3,4.3 	"/>
	<polygon class="st4" points="17.3,3.7 17.5,4.1 17.9,4.1 17.6,4.4 17.7,4.8 17.3,4.6 17,4.8 17,4.4 16.7,4.1 17.2,4.1 	"/>
	<polygon class="st4" points="19.3,3.9 19.5,4.3 19.9,4.4 19.6,4.7 19.7,5.1 19.3,4.9 18.9,5.1 19,4.7 18.7,4.4 19.1,4.3 	"/>
	<polygon class="st3" points="12.2,3 12.4,3.5 12.9,3.5 12.6,3.9 12.6,4.3 12.2,4.1 11.8,4.3 11.9,3.9 11.5,3.5 12,3.5 	"/>
	<polygon class="st3" points="11.7,4.8 11.9,5.3 12.4,5.3 12,5.7 12.1,6.2 11.7,5.9 11.2,6.2 11.3,5.7 11,5.3 11.5,5.3 	"/>
	<polygon class="st3" points="13.6,4.2 13.8,4.6 14.3,4.7 13.9,5 14,5.5 13.6,5.3 13.1,5.5 13.2,5 12.9,4.7 13.4,4.6 	"/>
	<polygon class="st3" points="10.1,4 10.3,4.4 10.8,4.5 10.5,4.8 10.5,5.3 10.1,5.1 9.7,5.3 9.8,4.8 9.4,4.5 9.9,4.4 	"/>
	<polygon class="st3" points="8.2,5.2 8.5,5.7 8.9,5.7 8.6,6.1 8.7,6.6 8.2,6.3 7.8,6.6 7.9,6.1 7.5,5.7 8,5.7 	"/>
	<polygon class="st3" points="6.4,5.2 6.6,5.6 7.1,5.7 6.7,6.1 6.8,6.5 6.4,6.3 5.9,6.5 6,6.1 5.7,5.7 6.1,5.6 	"/>
	<polygon class="st3" points="6.8,8.3 7,8.7 7.5,8.8 7.2,9.1 7.3,9.6 6.8,9.4 6.4,9.6 6.5,9.1 6.1,8.8 6.6,8.7 	"/>
	<polygon class="st0" points="5.7,9.8 5.9,10.2 6.3,10.3 6,10.5 6.1,10.9 5.7,10.8 5.4,10.9 5.4,10.5 5.1,10.3 5.5,10.2 	"/>
	<polygon class="st0" points="5.2,8.5 5.4,8.9 5.8,8.9 5.5,9.2 5.5,9.6 5.2,9.4 4.8,9.6 4.9,9.2 4.6,8.9 5,8.9 	"/>
	<polygon class="st0" points="4.7,7.3 4.9,7.6 5.3,7.7 5,8 5,8.4 4.7,8.2 4.3,8.4 4.4,8 4.1,7.7 4.5,7.6 	"/>
	<polygon class="st3" points="6.6,6.8 6.8,7.2 7.2,7.2 6.9,7.5 6.9,7.9 6.6,7.7 6.2,7.9 6.3,7.5 6,7.2 6.4,7.2 	"/>
	<polygon class="st3" points="13.1,1 13.4,1.5 14,1.6 13.6,2 13.7,2.6 13.1,2.4 12.6,2.6 12.7,2 12.3,1.6 12.9,1.5 	"/>
	<polygon class="st0" points="3.3,13.6 3.3,13.3 3,13.2 3.3,13 3.3,12.7 3.5,13 3.8,12.9 3.7,13.2 3.8,13.4 3.5,13.4 	"/>
	<polygon class="st0" points="4.3,14.5 4.3,14.2 4,14 4.2,13.9 4.3,13.6 4.5,13.8 4.8,13.7 4.7,14 4.8,14.3 4.5,14.2 	"/>
	<polygon class="st0" points="2.3,12.8 2.3,12.6 2,12.5 2.3,12.3 2.3,12.1 2.5,12.3 2.7,12.2 2.6,12.4 2.8,12.7 2.5,12.6 	"/>
	<polygon class="st0" points="6.2,15.1 6.2,14.7 5.8,14.6 6.1,14.4 6.2,14 6.5,14.3 6.8,14.2 6.7,14.5 6.9,14.9 6.5,14.8 	"/>
	<polygon class="st0" points="4.1,16.4 4,16.1 3.7,16 4,15.9 4,15.6 4.2,15.7 4.5,15.6 4.4,15.9 4.6,16.2 4.3,16.2 	"/>
	<polygon class="st0" points="5.1,17 5,16.7 4.7,16.6 5,16.5 5,16.1 5.2,16.3 5.5,16.2 5.4,16.5 5.6,16.8 5.3,16.8 	"/>
	<polygon class="st0" points="3,15.7 2.9,15.5 2.7,15.4 2.9,15.3 2.9,15 3.1,15.2 3.3,15.1 3.2,15.3 3.4,15.5 3.1,15.5 	"/>
	<polygon class="st0" points="5.9,16.4 5.8,16.1 5.4,16 5.8,15.7 5.8,15.4 6.1,15.6 6.4,15.5 6.3,15.8 6.5,16.1 6.1,16.1 	"/>
	<polygon class="st0" points="6,17.8 5.9,17.4 5.5,17.3 5.9,17.1 5.9,16.7 6.2,17 6.5,16.8 6.4,17.2 6.6,17.5 6.2,17.5 	"/>
	<polygon class="st0" points="6.2,19.1 6.1,18.8 5.8,18.6 6.1,18.4 6.1,18 6.4,18.3 6.7,18.2 6.6,18.5 6.8,18.8 6.5,18.8 	"/>
	<polygon class="st0" points="4.2,18 4.2,17.7 3.9,17.6 4.1,17.5 4.1,17.2 4.4,17.4 4.6,17.3 4.5,17.5 4.7,17.8 4.4,17.8 	"/>
	<polygon class="st0" points="5.3,18.4 5.2,18.1 4.9,18 5.1,17.8 5.1,17.5 5.4,17.7 5.7,17.6 5.6,17.9 5.7,18.2 5.4,18.1 	"/>
	<polygon class="st0" points="3.1,17.8 3,17.6 2.7,17.5 2.9,17.3 2.9,17.1 3.2,17.2 3.4,17.2 3.3,17.4 3.5,17.6 3.2,17.6 	"/>
	<polygon class="st0" points="5.7,20.2 5.6,19.9 5.4,19.8 5.6,19.6 5.6,19.3 5.8,19.5 6.1,19.4 6,19.7 6.2,19.9 5.9,19.9 	"/>
	<polygon class="st4" points="15.8,6.8 15.7,6.5 15.4,6.4 15.6,6.2 15.6,5.9 15.9,6.1 16.2,6 16.1,6.3 16.2,6.5 15.9,6.5 	"/>
	<polygon class="st3" points="10.7,9.6 10.6,9.3 10.3,9.3 10.6,9.1 10.6,8.8 10.8,9 11.1,8.9 11,9.2 11.2,9.4 10.9,9.4 	"/>
	<polygon class="st4" points="17.6,6.8 17.5,6.5 17.2,6.4 17.4,6.3 17.4,6 17.7,6.1 18,6 17.9,6.3 18,6.6 17.7,6.6 	"/>
	<polygon class="st4" points="19.2,7.1 19.1,6.8 18.8,6.7 19,6.5 19,6.2 19.3,6.4 19.5,6.3 19.5,6.6 19.6,6.8 19.3,6.8 	"/>
	<polygon class="st3" points="8,13.9 7.9,13.6 7.6,13.5 7.9,13.3 7.9,13 8.1,13.2 8.4,13.1 8.3,13.4 8.5,13.6 8.2,13.6 	"/>
	<polygon class="st0" points="7.3,15.1 7.2,14.8 6.9,14.7 7.2,14.6 7.2,14.3 7.4,14.4 7.7,14.3 7.6,14.6 7.8,14.9 7.5,14.9 	"/>
	<polygon class="st0" points="7.1,16.1 7,15.8 6.8,15.7 7,15.6 7,15.3 7.2,15.5 7.5,15.4 7.4,15.6 7.6,15.9 7.3,15.9 	"/>
	<polygon class="st0" points="7.1,17.2 7,17 6.7,16.9 6.9,16.7 6.9,16.4 7.2,16.6 7.5,16.5 7.4,16.8 7.6,17 7.3,17 	"/>
	<polygon class="st0" points="7.1,18.4 7,18.1 6.7,18 6.9,17.9 6.9,17.6 7.2,17.8 7.5,17.7 7.4,17.9 7.5,18.2 7.2,18.2 	"/>
	<polygon class="st0" points="7.3,19.7 7.2,19.5 6.9,19.4 7.2,19.2 7.2,18.9 7.4,19.1 7.7,19 7.6,19.3 7.8,19.5 7.5,19.5 	"/>
	<polygon class="st0" points="7.7,20.9 7.6,20.6 7.3,20.5 7.6,20.3 7.6,20 7.8,20.2 8.1,20.1 8,20.4 8.2,20.6 7.9,20.6 	"/>
	<polygon class="st0" points="8.4,21.6 8.3,21.3 8,21.2 8.2,21 8.2,20.7 8.5,20.9 8.8,20.8 8.7,21.1 8.9,21.4 8.5,21.4 	"/>
	<polygon class="st0" points="6.6,20.4 6.5,20.1 6.2,20 6.4,19.8 6.4,19.5 6.7,19.7 7,19.6 6.9,19.9 7,20.1 6.7,20.1 	"/>
	<polygon class="st0" points="4.5,20 4.5,19.7 4.2,19.7 4.4,19.5 4.4,19.2 4.6,19.4 4.9,19.3 4.8,19.6 5,19.8 4.7,19.8 	"/>
	<polygon class="st0" points="6.2,21.5 6.1,21.2 5.9,21.1 6.1,21 6.1,20.7 6.3,20.9 6.6,20.8 6.5,21 6.7,21.3 6.4,21.3 	"/>
	<polygon class="st0" points="7.3,21.5 7.2,21.2 6.9,21.1 7.2,21 7.2,20.7 7.4,20.8 7.7,20.7 7.6,21 7.8,21.3 7.5,21.3 	"/>
	<polygon class="st0" points="5.3,21.4 5.2,21.1 5,21 5.2,20.9 5.2,20.6 5.4,20.8 5.7,20.7 5.6,21 5.7,21.2 5.5,21.2 	"/>
	<polygon class="st0" points="8.3,22.7 8.2,22.4 7.9,22.4 8.2,22.2 8.2,21.9 8.4,22.1 8.7,22 8.6,22.3 8.8,22.5 8.5,22.5 	"/>
	<polygon class="st0" points="9.3,22.6 9.2,22.3 8.9,22.2 9.1,22 9.1,21.7 9.4,21.9 9.7,21.8 9.6,22.1 9.7,22.3 9.4,22.3 	"/>
	<polygon class="st0" points="7.2,22.8 7.2,22.6 6.9,22.5 7.1,22.3 7.1,22.1 7.3,22.2 7.6,22.2 7.5,22.4 7.7,22.6 7.4,22.6 	"/>
	<polygon class="st0" points="9.2,23.6 9.1,23.4 8.9,23.3 9.1,23.2 9.1,22.9 9.3,23.1 9.5,23 9.4,23.2 9.6,23.4 9.3,23.4 	"/>
	<polygon class="st0" points="10.1,23.3 10,23.1 9.8,23 10,22.8 10,22.6 10.2,22.7 10.4,22.7 10.4,22.9 10.5,23.1 10.3,23.1 	"/>
	<polygon class="st0" points="10.4,24.5 10.4,24.2 10.1,24.2 10.3,24 10.3,23.7 10.5,23.9 10.8,23.8 10.7,24.1 10.9,24.3 10.6,24.3 
			"/>
	<polygon class="st0" points="11.2,24.1 11.1,23.8 10.9,23.7 11.1,23.6 11.1,23.3 11.3,23.5 11.5,23.4 11.4,23.6 11.6,23.8 
		11.3,23.8 	"/>
	<polygon class="st0" points="12.2,24.5 12.1,24.2 11.8,24.2 12,24 12,23.7 12.2,23.9 12.5,23.8 12.4,24.1 12.6,24.3 12.3,24.3 	"/>
	<polygon class="st0" points="6.7,13.7 6.6,13.3 6.2,13.2 6.6,13 6.6,12.6 6.9,12.9 7.2,12.7 7.1,13.1 7.3,13.4 6.9,13.4 	"/>
	<polygon class="st3" points="7.5,12.6 7.4,12.2 7,12.1 7.3,11.9 7.3,11.5 7.6,11.7 8,11.6 7.9,12 8.1,12.3 7.7,12.3 	"/>
	<polygon class="st3" points="8.3,11.6 8.2,11.2 7.8,11.1 8.1,10.9 8.1,10.5 8.4,10.7 8.8,10.6 8.6,11 8.9,11.3 8.5,11.3 	"/>
	<polygon class="st0" points="4,11.5 4,11.2 3.8,11.1 4.1,11 4.2,10.7 4.4,10.9 4.7,11 4.5,11.2 4.6,11.5 4.3,11.4 	"/>
	<polygon class="st0" points="3.2,10.5 3.2,10.3 3,10.1 3.3,10 3.4,9.8 3.5,10 3.8,10 3.6,10.2 3.7,10.5 3.4,10.4 	"/>
	<polygon class="st0" points="4.8,12.7 4.8,12.3 4.5,12.1 4.9,12 5,11.6 5.2,11.9 5.6,11.9 5.3,12.2 5.4,12.6 5.1,12.5 	"/>
	<polygon class="st0" points="4.8,15.4 4.8,15 4.5,14.7 4.9,14.6 5,14.3 5.2,14.6 5.6,14.6 5.4,14.9 5.5,15.3 5.1,15.1 	"/>
	<polygon class="st0" points="5.3,13.8 5.3,13.4 5,13.2 5.4,13.1 5.5,12.7 5.7,13 6.1,13.1 5.9,13.4 6,13.7 5.6,13.6 	"/>
	<polygon class="st0" points="6,12.3 6,12 5.7,11.7 6.1,11.6 6.2,11.3 6.4,11.6 6.8,11.6 6.5,11.9 6.7,12.3 6.3,12.1 	"/>
	<polygon class="st3" points="6.8,11 6.8,10.6 6.5,10.4 6.9,10.3 7,9.9 7.2,10.3 7.6,10.3 7.4,10.6 7.5,10.9 7.1,10.8 	"/>
	<polygon class="st3" points="7.9,9.9 7.9,9.5 7.6,9.3 8,9.2 8.1,8.8 8.3,9.1 8.7,9.1 8.5,9.4 8.6,9.8 8.2,9.7 	"/>
	<polygon class="st3" points="9.2,8.7 9.2,8.4 8.9,8.1 9.3,8 9.4,7.7 9.6,8 10,8 9.8,8.3 9.9,8.7 9.5,8.5 	"/>
	<polygon class="st3" points="10.7,7.8 10.7,7.4 10.4,7.2 10.8,7.1 10.9,6.7 11.1,7.1 11.5,7.1 11.3,7.4 11.4,7.7 11,7.6 	"/>
	<polygon class="st3" points="12.2,7.2 12.2,6.8 11.9,6.6 12.3,6.5 12.4,6.2 12.6,6.5 13,6.5 12.7,6.8 12.8,7.1 12.5,7 	"/>
	<polygon class="st4" points="13.8,6.9 13.9,6.5 13.6,6.3 13.9,6.2 14.1,5.8 14.3,6.1 14.6,6.1 14.4,6.4 14.5,6.8 14.2,6.7 	"/>
	<polygon class="st3" points="9.2,10.5 9.2,10.2 8.9,9.9 9.2,9.8 9.4,9.5 9.6,9.8 10,9.8 9.7,10.1 9.8,10.5 9.5,10.3 	"/>
	<polygon class="st3" points="10.6,2.1 10.9,2.6 11.4,2.7 11,3.1 11.1,3.6 10.6,3.4 10.1,3.6 10.2,3.1 9.8,2.7 10.4,2.6 	"/>
	<polygon class="st3" points="8.3,3.4 8.6,3.9 9.1,4 8.7,4.3 8.8,4.9 8.3,4.6 7.8,4.9 7.9,4.3 7.5,4 8.1,3.9 	"/>
	<polygon class="st3" points="8.3,6.7 8.5,7.2 9,7.3 8.7,7.7 8.7,8.2 8.3,8 7.8,8.2 7.9,7.7 7.5,7.3 8,7.2 	"/>
	<polygon class="st3" points="9.8,5.6 10.1,6.1 10.6,6.2 10.2,6.6 10.3,7.1 9.8,6.9 9.3,7.1 9.4,6.6 9,6.2 9.6,6.1 	"/>
	<rect x="18.4" y="15.8" class="st5" width="0.5" height="0.1"/>
	<g>
		<g>
			
				<linearGradient id="SVGID_00000026128042870938400570000001334928623388681646_" gradientUnits="userSpaceOnUse" x1="26.1166" y1="38.0441" x2="169.5922" y2="38.0441">
				<stop  offset="0" style="stop-color:#FEE84E"/>
				<stop  offset="0.2791" style="stop-color:#EDBB36"/>
				<stop  offset="0.6276" style="stop-color:#FFE74D"/>
				<stop  offset="1" style="stop-color:#EFBD38"/>
			</linearGradient>
			<path style="fill:url(#SVGID_00000026128042870938400570000001334928623388681646_);" d="M43,42.3c0,1.3-0.3,2.4-1,3.5
				c-0.7,1-1.6,1.8-2.9,2.4c-1.3,0.6-2.8,0.9-4.5,0.9c-2.1,0-3.8-0.4-5.2-1.2c-1-0.6-1.8-1.3-2.4-2.3c-0.6-1-0.9-1.9-0.9-2.8
				c0-0.5,0.2-1,0.5-1.3c0.4-0.4,0.8-0.6,1.4-0.6c0.5,0,0.8,0.1,1.2,0.4s0.6,0.7,0.8,1.3c0.3,0.7,0.6,1.2,0.9,1.7
				c0.3,0.5,0.8,0.8,1.3,1.1c0.6,0.3,1.3,0.4,2.3,0.4c1.3,0,2.3-0.3,3.1-0.9s1.2-1.3,1.2-2.2c0-0.7-0.2-1.3-0.6-1.7
				c-0.4-0.4-1-0.8-1.7-1s-1.6-0.5-2.7-0.7c-1.5-0.4-2.8-0.8-3.8-1.3c-1-0.5-1.9-1.1-2.5-2c-0.6-0.8-0.9-1.9-0.9-3.1
				c0-1.2,0.3-2.2,1-3.1s1.6-1.6,2.8-2.1s2.6-0.7,4.3-0.7c1.3,0,2.4,0.2,3.4,0.5c1,0.3,1.7,0.8,2.4,1.3c0.6,0.5,1.1,1.1,1.4,1.7
				c0.3,0.6,0.4,1.2,0.4,1.7c0,0.5-0.2,1-0.5,1.4c-0.4,0.4-0.8,0.6-1.4,0.6c-0.5,0-0.9-0.1-1.1-0.4s-0.5-0.7-0.8-1.2
				c-0.4-0.8-0.9-1.4-1.4-1.9c-0.5-0.5-1.4-0.7-2.6-0.7c-1.1,0-2,0.2-2.7,0.7s-1,1.1-1,1.8c0,0.4,0.1,0.8,0.3,1.1
				c0.2,0.3,0.6,0.6,1,0.8c0.4,0.2,0.8,0.4,1.2,0.5c0.4,0.1,1.1,0.3,2.1,0.6c1.2,0.3,2.3,0.6,3.3,0.9c1,0.3,1.8,0.8,2.5,1.2
				s1.2,1.1,1.6,1.8C42.9,40.3,43,41.2,43,42.3z"/>
			
				<linearGradient id="SVGID_00000139278404350753122990000010563469972010280375_" gradientUnits="userSpaceOnUse" x1="26.1166" y1="38.0441" x2="169.5922" y2="38.0441">
				<stop  offset="0" style="stop-color:#FEE84E"/>
				<stop  offset="0.2791" style="stop-color:#EDBB36"/>
				<stop  offset="0.6276" style="stop-color:#FFE74D"/>
				<stop  offset="1" style="stop-color:#EFBD38"/>
			</linearGradient>
			<path style="fill:url(#SVGID_00000139278404350753122990000010563469972010280375_);" d="M49.6,29.6v6.1h9.3v-6.1
				c0-0.9,0.2-1.5,0.6-2c0.4-0.4,0.9-0.7,1.5-0.7c0.6,0,1.2,0.2,1.6,0.6c0.4,0.4,0.6,1.1,0.6,2v16.8c0,0.9-0.2,1.5-0.6,2
				c-0.4,0.4-0.9,0.7-1.6,0.7c-0.6,0-1.2-0.2-1.6-0.7c-0.4-0.4-0.6-1.1-0.6-2v-7.2h-9.3v7.2c0,0.9-0.2,1.5-0.6,2
				c-0.4,0.4-0.9,0.7-1.6,0.7c-0.6,0-1.2-0.2-1.6-0.7c-0.4-0.4-0.6-1.1-0.6-2V29.6c0-0.9,0.2-1.5,0.6-2c0.4-0.4,0.9-0.7,1.6-0.7
				c0.6,0,1.2,0.2,1.6,0.6C49.4,28.1,49.6,28.8,49.6,29.6z"/>
			
				<linearGradient id="SVGID_00000131365966372363490020000017406368421557029279_" gradientUnits="userSpaceOnUse" x1="26.1166" y1="38.0441" x2="169.5922" y2="38.0441">
				<stop  offset="0" style="stop-color:#FEE84E"/>
				<stop  offset="0.2791" style="stop-color:#EDBB36"/>
				<stop  offset="0.6276" style="stop-color:#FFE74D"/>
				<stop  offset="1" style="stop-color:#EFBD38"/>
			</linearGradient>
			<path style="fill:url(#SVGID_00000131365966372363490020000017406368421557029279_);" d="M80.4,30.7h-9.7V36h9
				c0.7,0,1.2,0.1,1.5,0.4c0.3,0.3,0.5,0.7,0.5,1.2s-0.2,0.9-0.5,1.2c-0.3,0.3-0.8,0.5-1.5,0.5h-9v6.1h10.1c0.7,0,1.2,0.2,1.5,0.5
				c0.3,0.3,0.5,0.7,0.5,1.3c0,0.5-0.2,0.9-0.5,1.2c-0.3,0.3-0.9,0.5-1.5,0.5H69c-0.9,0-1.6-0.2-2-0.6c-0.4-0.4-0.6-1.1-0.6-2V30
				c0-0.6,0.1-1.1,0.3-1.5s0.5-0.7,0.9-0.9c0.4-0.2,0.9-0.3,1.5-0.3h11.4c0.7,0,1.2,0.2,1.5,0.5c0.3,0.3,0.5,0.7,0.5,1.2
				c0,0.5-0.2,0.9-0.5,1.2C81.6,30.6,81.1,30.7,80.4,30.7z"/>
			
				<linearGradient id="SVGID_00000108988072302586944960000001398814385726683038_" gradientUnits="userSpaceOnUse" x1="26.1166" y1="38.0441" x2="169.5922" y2="38.0441">
				<stop  offset="0" style="stop-color:#FEE84E"/>
				<stop  offset="0.2791" style="stop-color:#EDBB36"/>
				<stop  offset="0.6276" style="stop-color:#FFE74D"/>
				<stop  offset="1" style="stop-color:#EFBD38"/>
			</linearGradient>
			<path style="fill:url(#SVGID_00000108988072302586944960000001398814385726683038_);" d="M100.9,42.3c0,1.3-0.3,2.4-1,3.5
				c-0.7,1-1.6,1.8-2.9,2.4c-1.3,0.6-2.8,0.9-4.5,0.9c-2.1,0-3.8-0.4-5.2-1.2c-1-0.6-1.8-1.3-2.4-2.3c-0.6-1-0.9-1.9-0.9-2.8
				c0-0.5,0.2-1,0.5-1.3c0.4-0.4,0.8-0.6,1.4-0.6c0.5,0,0.8,0.1,1.2,0.4s0.6,0.7,0.8,1.3c0.3,0.7,0.6,1.2,0.9,1.7
				c0.3,0.5,0.8,0.8,1.3,1.1c0.6,0.3,1.3,0.4,2.3,0.4c1.3,0,2.3-0.3,3.1-0.9c0.8-0.6,1.2-1.3,1.2-2.2c0-0.7-0.2-1.3-0.6-1.7
				c-0.4-0.4-1-0.8-1.7-1c-0.7-0.2-1.6-0.5-2.7-0.7c-1.5-0.4-2.8-0.8-3.8-1.3c-1-0.5-1.9-1.1-2.5-2c-0.6-0.8-0.9-1.9-0.9-3.1
				c0-1.2,0.3-2.2,1-3.1s1.6-1.6,2.8-2.1s2.6-0.7,4.3-0.7c1.3,0,2.4,0.2,3.4,0.5c1,0.3,1.7,0.8,2.4,1.3c0.6,0.5,1.1,1.1,1.4,1.7
				s0.4,1.2,0.4,1.7c0,0.5-0.2,1-0.5,1.4c-0.4,0.4-0.8,0.6-1.4,0.6c-0.5,0-0.9-0.1-1.1-0.4s-0.5-0.7-0.8-1.2
				c-0.4-0.8-0.9-1.4-1.4-1.9c-0.5-0.5-1.4-0.7-2.6-0.7c-1.1,0-2,0.2-2.7,0.7c-0.7,0.5-1,1.1-1,1.8c0,0.4,0.1,0.8,0.3,1.1
				c0.2,0.3,0.6,0.6,1,0.8s0.8,0.4,1.2,0.5c0.4,0.1,1.1,0.3,2.1,0.6c1.2,0.3,2.3,0.6,3.3,0.9c1,0.3,1.8,0.8,2.5,1.2
				c0.7,0.5,1.2,1.1,1.6,1.8C100.7,40.3,100.9,41.2,100.9,42.3z"/>
			
				<linearGradient id="SVGID_00000004529506569119182010000001142442199354708153_" gradientUnits="userSpaceOnUse" x1="26.1166" y1="38.0441" x2="169.5922" y2="38.0441">
				<stop  offset="0" style="stop-color:#FEE84E"/>
				<stop  offset="0.2791" style="stop-color:#EDBB36"/>
				<stop  offset="0.6276" style="stop-color:#FFE74D"/>
				<stop  offset="1" style="stop-color:#EFBD38"/>
			</linearGradient>
			<path style="fill:url(#SVGID_00000004529506569119182010000001142442199354708153_);" d="M107.4,29.6v6.1h9.3v-6.1
				c0-0.9,0.2-1.5,0.6-2c0.4-0.4,0.9-0.7,1.5-0.7c0.6,0,1.2,0.2,1.6,0.6c0.4,0.4,0.6,1.1,0.6,2v16.8c0,0.9-0.2,1.5-0.6,2
				c-0.4,0.4-0.9,0.7-1.6,0.7c-0.6,0-1.2-0.2-1.6-0.7c-0.4-0.4-0.6-1.1-0.6-2v-7.2h-9.3v7.2c0,0.9-0.2,1.5-0.6,2
				c-0.4,0.4-0.9,0.7-1.6,0.7c-0.6,0-1.2-0.2-1.6-0.7c-0.4-0.4-0.6-1.1-0.6-2V29.6c0-0.9,0.2-1.5,0.6-2c0.4-0.4,0.9-0.7,1.6-0.7
				c0.6,0,1.2,0.2,1.6,0.6C107.2,28.1,107.4,28.8,107.4,29.6z"/>
			
				<linearGradient id="SVGID_00000076604029223689647600000011268570908771277464_" gradientUnits="userSpaceOnUse" x1="26.1166" y1="38.0441" x2="169.5922" y2="38.0441">
				<stop  offset="0" style="stop-color:#FEE84E"/>
				<stop  offset="0.2791" style="stop-color:#EDBB36"/>
				<stop  offset="0.6276" style="stop-color:#FFE74D"/>
				<stop  offset="1" style="stop-color:#EFBD38"/>
			</linearGradient>
			<path style="fill:url(#SVGID_00000076604029223689647600000011268570908771277464_);" d="M124.4,46.4V29.6c0-0.9,0.2-1.5,0.6-2
				c0.4-0.4,0.9-0.7,1.5-0.7c0.6,0,1.2,0.2,1.6,0.6c0.4,0.4,0.6,1.1,0.6,2v16.8c0,0.9-0.2,1.5-0.6,2c-0.4,0.4-0.9,0.7-1.6,0.7
				c-0.6,0-1.1-0.2-1.5-0.7C124.6,48,124.4,47.3,124.4,46.4z"/>
			
				<linearGradient id="SVGID_00000012432860618732944780000010308224815704988084_" gradientUnits="userSpaceOnUse" x1="26.1166" y1="38.0441" x2="169.5922" y2="38.0441">
				<stop  offset="0" style="stop-color:#FEE84E"/>
				<stop  offset="0.2791" style="stop-color:#EDBB36"/>
				<stop  offset="0.6276" style="stop-color:#FFE74D"/>
				<stop  offset="1" style="stop-color:#EFBD38"/>
			</linearGradient>
			<path style="fill:url(#SVGID_00000012432860618732944780000010308224815704988084_);" d="M137.7,29.6l8.3,12.6V29.5
				c0-0.8,0.2-1.4,0.5-1.9s0.8-0.6,1.4-0.6c0.6,0,1.1,0.2,1.5,0.6s0.5,1,0.5,1.9v16.8c0,1.9-0.8,2.8-2.3,2.8c-0.4,0-0.7-0.1-1-0.2
				s-0.6-0.3-0.9-0.5s-0.5-0.5-0.8-0.9c-0.2-0.3-0.5-0.7-0.7-1l-8.1-12.4v12.5c0,0.8-0.2,1.4-0.6,1.8c-0.4,0.4-0.9,0.6-1.5,0.6
				c-0.6,0-1.1-0.2-1.5-0.6c-0.4-0.4-0.6-1-0.6-1.8V30.2c0-0.7,0.1-1.2,0.2-1.6c0.2-0.4,0.5-0.8,0.9-1.1c0.4-0.3,0.9-0.4,1.4-0.4
				c0.4,0,0.7,0.1,1,0.2s0.5,0.3,0.7,0.5c0.2,0.2,0.4,0.5,0.6,0.8C137.2,28.9,137.4,29.2,137.7,29.6z"/>
			
				<linearGradient id="SVGID_00000034047250577692917190000000634311289694455428_" gradientUnits="userSpaceOnUse" x1="26.1166" y1="38.0441" x2="169.5922" y2="38.0441">
				<stop  offset="0" style="stop-color:#FEE84E"/>
				<stop  offset="0.2791" style="stop-color:#EDBB36"/>
				<stop  offset="0.6276" style="stop-color:#FFE74D"/>
				<stop  offset="1" style="stop-color:#EFBD38"/>
			</linearGradient>
			<path style="fill:url(#SVGID_00000034047250577692917190000000634311289694455428_);" d="M167.2,30.7h-9.7V36h9
				c0.7,0,1.2,0.1,1.5,0.4c0.3,0.3,0.5,0.7,0.5,1.2s-0.2,0.9-0.5,1.2c-0.3,0.3-0.8,0.5-1.5,0.5h-9v6.1h10.1c0.7,0,1.2,0.2,1.5,0.5
				c0.3,0.3,0.5,0.7,0.5,1.3c0,0.5-0.2,0.9-0.5,1.2c-0.3,0.3-0.9,0.5-1.5,0.5h-11.7c-0.9,0-1.6-0.2-2-0.6s-0.6-1.1-0.6-2V30
				c0-0.6,0.1-1.1,0.3-1.5c0.2-0.4,0.5-0.7,0.9-0.9s0.9-0.3,1.5-0.3h11.4c0.7,0,1.2,0.2,1.5,0.5c0.3,0.3,0.5,0.7,0.5,1.2
				c0,0.5-0.2,0.9-0.5,1.2C168.4,30.6,167.9,30.7,167.2,30.7z"/>
		</g>
	</g>
</g>
</svg>
