<?xml version="1.0" encoding="utf-8"?>
<!-- Generator: Adobe Illustrator 26.2.1, SVG Export Plug-In . SVG Version: 6.00 Build 0)  -->
<svg version="1.1" id="Layer_1" xmlns="http://www.w3.org/2000/svg" xmlns:xlink="http://www.w3.org/1999/xlink" x="0px" y="0px"
	 viewBox="0 0 241.7 22" style="enable-background:new 0 0 241.7 22;" xml:space="preserve">
<style type="text/css">
	.st0{display:none;}
	.st1{display:inline;fill:#EDB935;}
	.st2{display:inline;fill:url(#SVGID_1_);}
	.st3{display:inline;fill:#E1BFA6;}
	.st4{display:inline;fill:#F9DB41;}
	.st5{display:inline;fill:#FEE84E;}
	.st6{display:inline;fill:#FFFFFF;}
	.st7{fill:url(#SVGID_00000005255965002898054510000014322007767159303358_);}
	.st8{fill:url(#SVGID_00000176025801774668064240000000652322144866327482_);}
	.st9{fill:url(#SVGID_00000111892263876680754360000016100702676226492814_);}
	.st10{fill:url(#SVGID_00000050620721439022432550000013274314098748828595_);}
	.st11{fill:url(#SVGID_00000030449939473701230850000003725547843722277821_);}
	.st12{fill:url(#SVGID_00000071541175424418672170000013359363381113115838_);}
	.st13{fill:url(#SVGID_00000011750072884443330170000004326096982453574053_);}
	.st14{fill:url(#SVGID_00000132072116780357041430000016338066016430325413_);}
	.st15{fill:url(#SVGID_00000158025090685849781340000000187205579444326078_);}
	.st16{fill:url(#SVGID_00000162322660535922773530000013514968576918101431_);}
	.st17{fill:url(#SVGID_00000030471574100566395810000001354516428549278911_);}
	.st18{fill:url(#SVGID_00000106853754608123270480000001393669537570768776_);}
	.st19{fill:url(#SVGID_00000083088890614370061540000005484247844801773715_);}
	.st20{display:inline;}
	.st21{fill:#CC7E62;}
	.st22{fill:#479E18;}
	.st23{opacity:0.69;fill:none;stroke:#174703;stroke-width:0.5;stroke-miterlimit:10;}
	.st24{opacity:0.69;}
	.st25{fill:#174703;}
	.st26{fill:#68491F;}
	.st27{fill:#473319;}
	.st28{fill:#A05C44;}
	.st29{opacity:0.32;}
	.st30{fill:#FFFFFF;stroke:#000000;stroke-miterlimit:10;}
	.st31{fill:#1D7001;}
	.st32{fill:none;stroke:#FFFFFF;stroke-width:0.1;stroke-miterlimit:10;}
</style>
<g class="st0">
	<linearGradient id="SVGID_1_" gradientUnits="userSpaceOnUse" x1="-26.1165" y1="8.5918" x2="4.9684" y2="8.5918">
		<stop  offset="0" style="stop-color:#FEE84E"/>
		<stop  offset="0.2791" style="stop-color:#EDBB36"/>
		<stop  offset="0.6276" style="stop-color:#FFE74D"/>
		<stop  offset="1" style="stop-color:#EFBD38"/>
	</linearGradient>
	<path class="st2" d="M-7.5-6c0,0,1.5-1.3,2.6-0.5c0,0,0.9,0.4,0.4,2c0,0-1.3,1.2-1.1,2.2c0,0-0.3,0.3,1.9,1.6c0,0,2.2,1.5,1,5.1
		c0,0-0.3,1.4-2.7,4.6c0,0-1.4,1.9-1.6,4.7c0,0,0,2.3,1.3,3c0,0-0.8-2.9,0.1-5.5c0,0,1.2-2.6,1.9-1.9c0,0,1,4.2,3.1,5.9
		c0,0,0.3,0.4-0.1,0.5c0,0-2.1,1.6-0.3,4c0,0,1.5,3,5.9,4.4c0,0-7,0.5-11.4-1.3c0,0-4.7-2.2-6.4-5.8c0,0-1.9-3.7-3.2-2.9
		c0,0,0.1,3.2-0.1,3.4c0,0-1.7,0.7-3.1-2.1c0,0-2.5-6-4.7-5.5c0,0-0.1,2.1,0.2,2.8c0,0-2.4,0-2.4-2.4c0,0-0.3-2.3,2.1-2.8
		c0,0,10-0.2,10.7-0.3c0,0,5.6-0.5,6.2-4.3c0,0,0-0.3-0.3-0.1c0,0-2,2.2-3.9,2.7c0,0-0.9-1.8-0.1-4.1c0,0,0.4-1.2,3.5-0.8
		c0,0,0.5-0.4-0.3-0.8l-2.4,0l-4-3.3l1.2-1L-9.6-1c0,0,1.3,0.5,1-0.9c0,0,0-1-1.8-2.5c0,0-1-1.3,0.3-2.3C-10.1-6.8-8.5-7.3-7.5-6z"
		/>
</g>
<g>
	<g>
		
			<linearGradient id="SVGID_00000134962362892461000940000017273545098956141462_" gradientUnits="userSpaceOnUse" x1="0" y1="11.0178" x2="241.6968" y2="11.0178">
			<stop  offset="0" style="stop-color:#FEE84E"/>
			<stop  offset="0.2791" style="stop-color:#EDBB36"/>
			<stop  offset="0.6276" style="stop-color:#FFE74D"/>
			<stop  offset="1" style="stop-color:#EFBD38"/>
		</linearGradient>
		<path style="fill:url(#SVGID_00000134962362892461000940000017273545098956141462_);" d="M16.9,15.3c0,1.3-0.3,2.4-1,3.5
			c-0.7,1-1.6,1.8-2.9,2.4c-1.3,0.6-2.8,0.9-4.5,0.9c-2.1,0-3.8-0.4-5.2-1.2c-1-0.6-1.8-1.3-2.4-2.3c-0.6-1-0.9-1.9-0.9-2.8
			c0-0.5,0.2-1,0.5-1.3c0.4-0.4,0.8-0.6,1.4-0.6c0.5,0,0.8,0.1,1.2,0.4s0.6,0.7,0.8,1.3c0.3,0.7,0.6,1.2,0.9,1.7
			c0.3,0.5,0.8,0.8,1.3,1.1c0.6,0.3,1.3,0.4,2.3,0.4c1.3,0,2.3-0.3,3.1-0.9s1.2-1.3,1.2-2.2c0-0.7-0.2-1.3-0.6-1.7
			c-0.4-0.4-1-0.8-1.7-1s-1.6-0.5-2.7-0.7c-1.5-0.4-2.8-0.8-3.8-1.3c-1-0.5-1.9-1.1-2.5-2C0.7,8.2,0.4,7.2,0.4,6
			c0-1.2,0.3-2.2,1-3.1s1.6-1.6,2.8-2.1S6.8,0,8.4,0c1.3,0,2.4,0.2,3.4,0.5c1,0.3,1.7,0.8,2.4,1.3c0.6,0.5,1.1,1.1,1.4,1.7
			C15.9,4.1,16,4.6,16,5.2c0,0.5-0.2,1-0.5,1.4c-0.4,0.4-0.8,0.6-1.4,0.6c-0.5,0-0.9-0.1-1.1-0.4s-0.5-0.7-0.8-1.2
			c-0.4-0.8-0.9-1.4-1.4-1.9c-0.5-0.5-1.4-0.7-2.6-0.7c-1.1,0-2,0.2-2.7,0.7s-1,1.1-1,1.8c0,0.4,0.1,0.8,0.3,1.1
			C5,7,5.3,7.2,5.7,7.5C6.1,7.7,6.5,7.9,6.9,8C7.4,8.1,8.1,8.3,9,8.5c1.2,0.3,2.3,0.6,3.3,0.9c1,0.3,1.8,0.8,2.5,1.2
			s1.2,1.1,1.6,1.8C16.7,13.3,16.9,14.2,16.9,15.3z"/>
		
			<linearGradient id="SVGID_00000023277987548541135450000005491218350805520036_" gradientUnits="userSpaceOnUse" x1="0" y1="11.0178" x2="241.6968" y2="11.0178">
			<stop  offset="0" style="stop-color:#FEE84E"/>
			<stop  offset="0.2791" style="stop-color:#EDBB36"/>
			<stop  offset="0.6276" style="stop-color:#FFE74D"/>
			<stop  offset="1" style="stop-color:#EFBD38"/>
		</linearGradient>
		<path style="fill:url(#SVGID_00000023277987548541135450000005491218350805520036_);" d="M23.5,2.6v6.1h9.3V2.6
			c0-0.9,0.2-1.5,0.6-2C33.8,0.2,34.3,0,34.9,0c0.6,0,1.2,0.2,1.6,0.6c0.4,0.4,0.6,1.1,0.6,2v16.8c0,0.9-0.2,1.5-0.6,2
			c-0.4,0.4-0.9,0.7-1.6,0.7c-0.6,0-1.2-0.2-1.6-0.7c-0.4-0.4-0.6-1.1-0.6-2v-7.2h-9.3v7.2c0,0.9-0.2,1.5-0.6,2
			c-0.4,0.4-0.9,0.7-1.6,0.7c-0.6,0-1.2-0.2-1.6-0.7c-0.4-0.4-0.6-1.1-0.6-2V2.6c0-0.9,0.2-1.5,0.6-2C20.1,0.2,20.6,0,21.3,0
			c0.6,0,1.2,0.2,1.6,0.6C23.3,1.1,23.5,1.7,23.5,2.6z"/>
		
			<linearGradient id="SVGID_00000070119848469134891740000011947887561069057420_" gradientUnits="userSpaceOnUse" x1="0" y1="11.0178" x2="241.6968" y2="11.0178">
			<stop  offset="0" style="stop-color:#FEE84E"/>
			<stop  offset="0.2791" style="stop-color:#EDBB36"/>
			<stop  offset="0.6276" style="stop-color:#FFE74D"/>
			<stop  offset="1" style="stop-color:#EFBD38"/>
		</linearGradient>
		<path style="fill:url(#SVGID_00000070119848469134891740000011947887561069057420_);" d="M40.4,19.4V2.6c0-0.9,0.2-1.5,0.6-2
			C41.4,0.2,41.9,0,42.5,0c0.6,0,1.2,0.2,1.6,0.6c0.4,0.4,0.6,1.1,0.6,2v16.8c0,0.9-0.2,1.5-0.6,2c-0.4,0.4-0.9,0.7-1.6,0.7
			c-0.6,0-1.1-0.2-1.5-0.7C40.6,20.9,40.4,20.3,40.4,19.4z"/>
		
			<linearGradient id="SVGID_00000096743901529492588890000007709605687175886510_" gradientUnits="userSpaceOnUse" x1="0" y1="11.0178" x2="241.6968" y2="11.0178">
			<stop  offset="0" style="stop-color:#FEE84E"/>
			<stop  offset="0.2791" style="stop-color:#EDBB36"/>
			<stop  offset="0.6276" style="stop-color:#FFE74D"/>
			<stop  offset="1" style="stop-color:#EFBD38"/>
		</linearGradient>
		<path style="fill:url(#SVGID_00000096743901529492588890000007709605687175886510_);" d="M53.7,2.6L62,15.1V2.5
			c0-0.8,0.2-1.4,0.5-1.9C62.9,0.2,63.3,0,63.9,0c0.6,0,1.1,0.2,1.5,0.6s0.5,1,0.5,1.9v16.8c0,1.9-0.8,2.8-2.3,2.8
			c-0.4,0-0.7-0.1-1-0.2c-0.3-0.1-0.6-0.3-0.9-0.5s-0.5-0.5-0.8-0.9c-0.2-0.3-0.5-0.7-0.7-1L52.2,7.1v12.5c0,0.8-0.2,1.4-0.6,1.8
			c-0.4,0.4-0.9,0.6-1.5,0.6c-0.6,0-1.1-0.2-1.5-0.6c-0.4-0.4-0.6-1-0.6-1.8V3.1c0-0.7,0.1-1.2,0.2-1.6c0.2-0.4,0.5-0.8,0.9-1.1
			C49.7,0.1,50.2,0,50.7,0c0.4,0,0.7,0.1,1,0.2c0.3,0.1,0.5,0.3,0.7,0.5c0.2,0.2,0.4,0.5,0.6,0.8C53.2,1.9,53.5,2.2,53.7,2.6z"/>
		
			<linearGradient id="SVGID_00000104699743465332389940000017121183177686012076_" gradientUnits="userSpaceOnUse" x1="0" y1="11.0178" x2="241.6968" y2="11.0178">
			<stop  offset="0" style="stop-color:#FEE84E"/>
			<stop  offset="0.2791" style="stop-color:#EDBB36"/>
			<stop  offset="0.6276" style="stop-color:#FFE74D"/>
			<stop  offset="1" style="stop-color:#EFBD38"/>
		</linearGradient>
		<path style="fill:url(#SVGID_00000104699743465332389940000017121183177686012076_);" d="M83.2,3.7h-9.7v5.2h9
			c0.7,0,1.2,0.1,1.5,0.4s0.5,0.7,0.5,1.2s-0.2,0.9-0.5,1.2c-0.3,0.3-0.8,0.5-1.5,0.5h-9v6.1h10.1c0.7,0,1.2,0.2,1.5,0.5
			c0.3,0.3,0.5,0.7,0.5,1.3c0,0.5-0.2,0.9-0.5,1.2c-0.3,0.3-0.9,0.5-1.5,0.5H71.8c-0.9,0-1.6-0.2-2-0.6s-0.6-1.1-0.6-2V3
			c0-0.6,0.1-1.1,0.3-1.5c0.2-0.4,0.5-0.7,0.9-0.9s0.9-0.3,1.5-0.3h11.4c0.7,0,1.2,0.2,1.5,0.5c0.3,0.3,0.5,0.7,0.5,1.2
			c0,0.5-0.2,0.9-0.5,1.2C84.4,3.5,83.9,3.7,83.2,3.7z"/>
		
			<linearGradient id="SVGID_00000098910133021798709100000011419470369756006545_" gradientUnits="userSpaceOnUse" x1="0" y1="11.0178" x2="241.6968" y2="11.0178">
			<stop  offset="0" style="stop-color:#FEE84E"/>
			<stop  offset="0.2791" style="stop-color:#EDBB36"/>
			<stop  offset="0.6276" style="stop-color:#FFE74D"/>
			<stop  offset="1" style="stop-color:#EFBD38"/>
		</linearGradient>
		<path style="fill:url(#SVGID_00000098910133021798709100000011419470369756006545_);" d="M102.9,0c2.2,0,4.1,0.4,5.7,1.3
			c1.6,0.9,2.8,2.2,3.6,3.8c0.8,1.7,1.2,3.6,1.2,5.8c0,1.6-0.2,3.1-0.7,4.5c-0.4,1.3-1.1,2.5-2,3.5c-0.9,1-2,1.7-3.3,2.3
			c-1.3,0.5-2.8,0.8-4.5,0.8c-1.7,0-3.2-0.3-4.5-0.8c-1.3-0.5-2.4-1.3-3.3-2.3c-0.9-1-1.5-2.2-2-3.5c-0.5-1.4-0.7-2.9-0.7-4.5
			c0-1.6,0.2-3.1,0.7-4.5s1.2-2.5,2-3.5c0.9-1,2-1.7,3.3-2.2S101.3,0,102.9,0z M109,11c0-1.6-0.3-2.9-0.8-4.1
			c-0.5-1.1-1.2-2-2.2-2.6c-0.9-0.6-2-0.9-3.2-0.9c-0.9,0-1.7,0.2-2.4,0.5c-0.7,0.3-1.4,0.8-1.9,1.4s-0.9,1.4-1.2,2.4
			c-0.3,1-0.5,2-0.5,3.2c0,1.2,0.2,2.3,0.5,3.3c0.3,1,0.7,1.8,1.3,2.4c0.6,0.6,1.2,1.1,1.9,1.4c0.7,0.3,1.5,0.5,2.4,0.5
			c1.1,0,2.1-0.3,3-0.8c0.9-0.6,1.7-1.4,2.2-2.6C108.7,14.1,109,12.6,109,11z"/>
		
			<linearGradient id="SVGID_00000142878562298267636690000016086755705493975435_" gradientUnits="userSpaceOnUse" x1="0" y1="11.0178" x2="241.6968" y2="11.0178">
			<stop  offset="0" style="stop-color:#FEE84E"/>
			<stop  offset="0.2791" style="stop-color:#EDBB36"/>
			<stop  offset="0.6276" style="stop-color:#FFE74D"/>
			<stop  offset="1" style="stop-color:#EFBD38"/>
		</linearGradient>
		<path style="fill:url(#SVGID_00000142878562298267636690000016086755705493975435_);" d="M121.4,12.6h-1.5v6.8
			c0,0.9-0.2,1.6-0.6,2c-0.4,0.4-0.9,0.6-1.6,0.6c-0.7,0-1.2-0.2-1.6-0.7c-0.4-0.4-0.6-1.1-0.6-2V3c0-0.9,0.2-1.6,0.6-2
			c0.4-0.4,1.1-0.6,2-0.6h7c1,0,1.8,0,2.5,0.1c0.7,0.1,1.3,0.2,1.9,0.5c0.7,0.3,1.3,0.7,1.8,1.2s0.9,1.1,1.2,1.8s0.4,1.4,0.4,2.2
			c0,1.6-0.4,2.9-1.3,3.8c-0.9,1-2.3,1.6-4.1,2c0.8,0.4,1.5,1,2.2,1.8c0.7,0.8,1.3,1.6,1.9,2.5s1,1.7,1.3,2.4
			c0.3,0.7,0.5,1.2,0.5,1.5c0,0.3-0.1,0.6-0.3,0.8c-0.2,0.3-0.4,0.5-0.7,0.7c-0.3,0.2-0.7,0.2-1.1,0.2c-0.5,0-0.9-0.1-1.2-0.3
			s-0.6-0.5-0.9-0.9s-0.6-0.9-1-1.5l-1.7-2.9c-0.6-1.1-1.2-1.9-1.7-2.4c-0.5-0.6-1-0.9-1.5-1.1C122.8,12.7,122.2,12.6,121.4,12.6z
			 M123.9,3.6h-4v5.9h3.9c1,0,1.9-0.1,2.6-0.3c0.7-0.2,1.2-0.5,1.6-0.9c0.4-0.4,0.6-1,0.6-1.8c0-0.6-0.2-1.1-0.5-1.6
			c-0.3-0.5-0.7-0.8-1.2-1C126.3,3.7,125.4,3.6,123.9,3.6z"/>
		
			<linearGradient id="SVGID_00000089560116006811710020000000343184606204487844_" gradientUnits="userSpaceOnUse" x1="0" y1="11.0178" x2="241.6968" y2="11.0178">
			<stop  offset="0" style="stop-color:#FEE84E"/>
			<stop  offset="0.2791" style="stop-color:#EDBB36"/>
			<stop  offset="0.6276" style="stop-color:#FFE74D"/>
			<stop  offset="1" style="stop-color:#EFBD38"/>
		</linearGradient>
		<path style="fill:url(#SVGID_00000089560116006811710020000000343184606204487844_);" d="M154.6,13v4.1c0,0.5-0.1,1-0.2,1.3
			c-0.1,0.3-0.3,0.6-0.6,0.9s-0.7,0.5-1.1,0.8c-1.3,0.7-2.5,1.2-3.7,1.5c-1.2,0.3-2.5,0.5-3.9,0.5c-1.6,0-3.1-0.3-4.5-0.8
			s-2.5-1.2-3.4-2.2c-1-1-1.7-2.1-2.2-3.5s-0.8-2.9-0.8-4.6c0-1.7,0.2-3.2,0.7-4.5s1.2-2.5,2.2-3.5c1-1,2.1-1.7,3.5-2.2
			s2.9-0.8,4.7-0.8c1.4,0,2.7,0.2,3.8,0.6c1.1,0.4,2,0.9,2.7,1.4c0.7,0.6,1.2,1.2,1.6,1.8c0.3,0.6,0.5,1.2,0.5,1.7
			c0,0.5-0.2,1-0.6,1.4s-0.9,0.6-1.4,0.6c-0.3,0-0.6-0.1-0.9-0.2c-0.3-0.1-0.5-0.3-0.7-0.6c-0.5-0.8-1-1.5-1.4-1.9
			c-0.4-0.4-0.9-0.8-1.5-1.1c-0.6-0.3-1.4-0.4-2.4-0.4c-1,0-1.9,0.2-2.7,0.5c-0.8,0.3-1.5,0.8-2,1.5s-1,1.5-1.3,2.4
			c-0.3,1-0.4,2-0.4,3.2c0,2.5,0.6,4.4,1.7,5.8s2.7,2,4.8,2c1,0,1.9-0.1,2.8-0.4s1.8-0.6,2.7-1.1v-3.5h-3.3c-0.8,0-1.4-0.1-1.8-0.4
			s-0.6-0.7-0.6-1.2c0-0.5,0.2-0.9,0.5-1.2s0.8-0.5,1.4-0.5h4.9c0.6,0,1.1,0.1,1.5,0.2c0.4,0.1,0.8,0.3,1,0.7S154.6,12.3,154.6,13z"
			/>
		
			<linearGradient id="SVGID_00000102517943179975671400000009826948230272299429_" gradientUnits="userSpaceOnUse" x1="0" y1="11.0178" x2="241.6968" y2="11.0178">
			<stop  offset="0" style="stop-color:#FEE84E"/>
			<stop  offset="0.2791" style="stop-color:#EDBB36"/>
			<stop  offset="0.6276" style="stop-color:#FFE74D"/>
			<stop  offset="1" style="stop-color:#EFBD38"/>
		</linearGradient>
		<path style="fill:url(#SVGID_00000102517943179975671400000009826948230272299429_);" d="M169.7,19.3l-1-2.7H160l-1,2.7
			c-0.4,1.1-0.7,1.8-1,2.2s-0.7,0.6-1.4,0.6c-0.5,0-1-0.2-1.4-0.6c-0.4-0.4-0.6-0.8-0.6-1.4c0-0.3,0-0.6,0.1-0.9
			c0.1-0.3,0.3-0.7,0.5-1.3l5.5-13.8c0.2-0.4,0.3-0.9,0.6-1.4c0.2-0.6,0.5-1,0.7-1.4s0.6-0.7,1-0.9c0.4-0.2,0.9-0.3,1.5-0.3
			c0.6,0,1.1,0.1,1.5,0.3c0.4,0.2,0.7,0.5,1,0.9s0.5,0.7,0.6,1.2c0.2,0.4,0.4,1,0.6,1.6l5.6,13.8c0.4,1,0.7,1.8,0.7,2.3
			c0,0.5-0.2,0.9-0.6,1.4c-0.4,0.4-0.9,0.6-1.5,0.6c-0.3,0-0.6-0.1-0.9-0.2s-0.4-0.3-0.6-0.5s-0.3-0.5-0.5-1
			C170,20,169.9,19.6,169.7,19.3z M161.2,13.3h6.4l-3.2-8.8L161.2,13.3z"/>
		
			<linearGradient id="SVGID_00000054954653862342615080000011390672002297743787_" gradientUnits="userSpaceOnUse" x1="0" y1="11.0178" x2="241.6968" y2="11.0178">
			<stop  offset="0" style="stop-color:#FEE84E"/>
			<stop  offset="0.2791" style="stop-color:#EDBB36"/>
			<stop  offset="0.6276" style="stop-color:#FFE74D"/>
			<stop  offset="1" style="stop-color:#EFBD38"/>
		</linearGradient>
		<path style="fill:url(#SVGID_00000054954653862342615080000011390672002297743787_);" d="M181.6,2.6l8.3,12.6V2.5
			c0-0.8,0.2-1.4,0.5-1.9s0.8-0.6,1.4-0.6c0.6,0,1.1,0.2,1.5,0.6s0.5,1,0.5,1.9v16.8c0,1.9-0.8,2.8-2.3,2.8c-0.4,0-0.7-0.1-1-0.2
			s-0.6-0.3-0.9-0.5s-0.5-0.5-0.8-0.9c-0.2-0.3-0.5-0.7-0.7-1l-8.1-12.4v12.5c0,0.8-0.2,1.4-0.6,1.8c-0.4,0.4-0.9,0.6-1.5,0.6
			c-0.6,0-1.1-0.2-1.5-0.6c-0.4-0.4-0.6-1-0.6-1.8V3.1c0-0.7,0.1-1.2,0.2-1.6c0.2-0.4,0.5-0.8,0.9-1.1c0.4-0.3,0.9-0.4,1.4-0.4
			c0.4,0,0.7,0.1,1,0.2s0.5,0.3,0.7,0.5c0.2,0.2,0.4,0.5,0.6,0.8C181.2,1.9,181.4,2.2,181.6,2.6z"/>
		
			<linearGradient id="SVGID_00000061471985705209112140000015493756256151634832_" gradientUnits="userSpaceOnUse" x1="0" y1="11.0178" x2="241.6968" y2="11.0178">
			<stop  offset="0" style="stop-color:#FEE84E"/>
			<stop  offset="0.2791" style="stop-color:#EDBB36"/>
			<stop  offset="0.6276" style="stop-color:#FFE74D"/>
			<stop  offset="1" style="stop-color:#EFBD38"/>
		</linearGradient>
		<path style="fill:url(#SVGID_00000061471985705209112140000015493756256151634832_);" d="M197.3,19.4V2.6c0-0.9,0.2-1.5,0.6-2
			c0.4-0.4,0.9-0.7,1.5-0.7c0.6,0,1.2,0.2,1.6,0.6c0.4,0.4,0.6,1.1,0.6,2v16.8c0,0.9-0.2,1.5-0.6,2c-0.4,0.4-0.9,0.7-1.6,0.7
			c-0.6,0-1.1-0.2-1.5-0.7C197.5,20.9,197.3,20.3,197.3,19.4z"/>
		
			<linearGradient id="SVGID_00000027585815917756264710000001903601235435690897_" gradientUnits="userSpaceOnUse" x1="0" y1="11.0178" x2="241.6968" y2="11.0178">
			<stop  offset="0" style="stop-color:#FEE84E"/>
			<stop  offset="0.2791" style="stop-color:#EDBB36"/>
			<stop  offset="0.6276" style="stop-color:#FFE74D"/>
			<stop  offset="1" style="stop-color:#EFBD38"/>
		</linearGradient>
		<path style="fill:url(#SVGID_00000027585815917756264710000001903601235435690897_);" d="M223.1,14.9c0,0.7-0.2,1.4-0.5,2.2
			c-0.3,0.8-0.9,1.6-1.6,2.3c-0.7,0.8-1.6,1.4-2.7,1.9s-2.4,0.7-3.9,0.7c-1.1,0-2.1-0.1-3.1-0.3c-0.9-0.2-1.8-0.5-2.5-1
			c-0.8-0.5-1.4-1-2.1-1.8c-0.6-0.7-1-1.4-1.4-2.2c-0.4-0.8-0.7-1.7-0.9-2.7c-0.2-0.9-0.3-1.9-0.3-3c0-1.7,0.2-3.3,0.7-4.6
			c0.5-1.4,1.2-2.5,2.1-3.5c0.9-1,2-1.7,3.3-2.2c1.2-0.5,2.6-0.8,4-0.8c1.7,0,3.3,0.3,4.6,1c1.3,0.7,2.4,1.5,3.1,2.6
			c0.7,1,1.1,2,1.1,2.9c0,0.5-0.2,0.9-0.5,1.3s-0.8,0.6-1.3,0.6c-0.6,0-1-0.1-1.2-0.4c-0.3-0.3-0.6-0.7-0.9-1.4
			c-0.6-1.1-1.2-1.8-2-2.4c-0.8-0.5-1.7-0.8-2.8-0.8c-1.8,0-3.2,0.7-4.2,2c-1.1,1.3-1.6,3.3-1.6,5.7c0,1.7,0.2,3,0.7,4.1
			c0.5,1.1,1.1,1.9,2,2.5c0.9,0.5,1.9,0.8,3,0.8c1.2,0,2.3-0.3,3.1-0.9c0.9-0.6,1.5-1.5,1.9-2.7c0.2-0.6,0.4-1,0.7-1.4
			c0.3-0.4,0.7-0.5,1.3-0.5c0.5,0,1,0.2,1.3,0.5C222.9,14,223.1,14.4,223.1,14.9z"/>
		
			<linearGradient id="SVGID_00000138549284682266207950000009992883153888662705_" gradientUnits="userSpaceOnUse" x1="0" y1="11.0178" x2="241.6968" y2="11.0178">
			<stop  offset="0" style="stop-color:#FEE84E"/>
			<stop  offset="0.2791" style="stop-color:#EDBB36"/>
			<stop  offset="0.6276" style="stop-color:#FFE74D"/>
			<stop  offset="1" style="stop-color:#EFBD38"/>
		</linearGradient>
		<path style="fill:url(#SVGID_00000138549284682266207950000009992883153888662705_);" d="M241.7,15.3c0,1.3-0.3,2.4-1,3.5
			c-0.7,1-1.6,1.8-2.9,2.4S235,22,233.2,22c-2.1,0-3.8-0.4-5.2-1.2c-1-0.6-1.8-1.3-2.4-2.3c-0.6-1-0.9-1.9-0.9-2.8
			c0-0.5,0.2-1,0.5-1.3c0.4-0.4,0.8-0.6,1.4-0.6c0.5,0,0.8,0.1,1.2,0.4s0.6,0.7,0.8,1.3c0.3,0.7,0.6,1.2,0.9,1.7
			c0.3,0.5,0.8,0.8,1.3,1.1c0.6,0.3,1.3,0.4,2.3,0.4c1.3,0,2.3-0.3,3.1-0.9s1.2-1.3,1.2-2.2c0-0.7-0.2-1.3-0.6-1.7
			c-0.4-0.4-1-0.8-1.7-1c-0.7-0.2-1.6-0.5-2.7-0.7c-1.5-0.4-2.8-0.8-3.8-1.3c-1-0.5-1.9-1.1-2.5-2c-0.6-0.8-0.9-1.9-0.9-3.1
			c0-1.2,0.3-2.2,1-3.1c0.6-0.9,1.6-1.6,2.8-2.1s2.6-0.7,4.3-0.7c1.3,0,2.4,0.2,3.4,0.5c1,0.3,1.7,0.8,2.4,1.3
			c0.6,0.5,1.1,1.1,1.4,1.7c0.3,0.6,0.4,1.2,0.4,1.7c0,0.5-0.2,1-0.5,1.4c-0.4,0.4-0.8,0.6-1.4,0.6c-0.5,0-0.9-0.1-1.1-0.4
			s-0.5-0.7-0.8-1.2c-0.4-0.8-0.9-1.4-1.4-1.9c-0.5-0.5-1.4-0.7-2.6-0.7c-1.1,0-2,0.2-2.7,0.7c-0.7,0.5-1,1.1-1,1.8
			c0,0.4,0.1,0.8,0.3,1.1c0.2,0.3,0.6,0.6,1,0.8c0.4,0.2,0.8,0.4,1.2,0.5c0.4,0.1,1.1,0.3,2.1,0.6c1.2,0.3,2.3,0.6,3.3,0.9
			c1,0.3,1.8,0.8,2.5,1.2c0.7,0.5,1.2,1.1,1.6,1.8C241.5,13.3,241.7,14.2,241.7,15.3z"/>
	</g>
</g>
</svg>
