<?xml version="1.0" encoding="utf-8"?>
<!-- Generator: Adobe Illustrator 26.2.1, SVG Export Plug-In . SVG Version: 6.00 Build 0)  -->
<svg version="1.1" id="Layer_1" xmlns="http://www.w3.org/2000/svg" xmlns:xlink="http://www.w3.org/1999/xlink" x="0px" y="0px"
	 viewBox="0 0 90.4 112.7" style="enable-background:new 0 0 90.4 112.7;" xml:space="preserve">
<style type="text/css">
	.st0{display:none;fill:#C62E32;}
	.st1{fill:#FFFFFF;}
	.st2{fill:#C62E32;}
	.st3{display:none;}
	.st4{display:inline;}
	.st5{fill:#FFFF00;}
	.st6{display:inline;fill:#FFFF00;}
	.st7{display:inline;fill:#C62E32;}
</style>
<rect x="-120.7" y="-102.7" class="st0" width="361" height="362"/>
<path class="st1" d="M48,58.7c0,0,9.9-2,10.3,7.7c0,0-8.2-0.1-8.9-5.5c0,0,3.4-0.5,4.2,0.9C53.6,61.9,54.4,60.1,48,58.7z"/>
<path class="st1" d="M11.1,78.5c0,0-4.6,18.4,5.5,23.3c0,0-5.4-7-1.6-17.1c0,0,0.4,0.2,0.9,0.5c6.3,3.7,9.9,10.6,9.8,17.9
	c0,2.2-0.2,4.7-0.6,6.4c-0.2,1-0.4,2-0.4,3.1c0,1.7,0.2,4.2,1.5,6.6c0,0-3.2-0.9-7.1-3.3C8.6,109.2,3.6,96.2,7.5,84.4
	C8.2,82.1,9.4,79.9,11.1,78.5z"/>
<path class="st1" d="M29.9,106.8c0,0-0.1,11.1,6.8,12.3c0,0-4.3-3.1-3.4-9.4c0,0,0.2,0,0.7,0.1c4.4,1.1,7.6,4.4,8.6,8.5
	c0.3,1.3,0.6,2.7,0.6,3.7c0,0.6,0,1.2,0.2,1.8c0.2,1,0.7,2.3,1.8,3.5c0,0-2.1,0-4.8-0.8c-7.4-2-12.3-8.6-11.7-15.8
	C28.6,109.3,29,107.9,29.9,106.8z"/>
<path class="st1" d="M47.6,117.1c0,0,1.1,7,5.5,7c0,0-3-1.5-3.2-5.6c0,0,0.2,0,0.4,0c2.9,0.2,5.3,2,6.3,4.5c0.3,0.8,0.6,1.6,0.7,2.3
	c0.1,0.4,0.2,0.8,0.3,1.1c0.3,0.6,0.7,1.4,1.5,2c0,0-1.3,0.2-3.1,0c-4.9-0.5-8.7-4.1-9-8.8C47,118.8,47.1,117.9,47.6,117.1z"/>
<g>
	<g>
		<path class="st1" d="M53.5,70.2c-9,1.6-9.7-7.9-9.7-7.9c-17.1,2.2-15.5,21.1-15.5,21.1c3.6,31.3,30.4,29.2,30.4,29.2
			C88.6,111.1,90.2,79,90.2,79c1.9-18.3-12-36.5-20.5-45.7c-2.8-3-6.1-5.4-9-8.2C46.8,11.2,54.9,0,54.9,0S-0.2,23.4,0,62.1
			c0,0,5.4-8.3,8.8-11c0,0-7.6,14.2-4.5,29.2c0,0,5.8-41,44.9-30.4c0.5,0.1,1,0.3,1.5,0.4c2.2,0.5,10,2.9,10.2,12l-0.4,16L60.3,78
			C60.3,78,60.7,68.2,53.5,70.2z"/>
	</g>
	<g>
		<path class="st1" d="M60.1,52.2c0,0,4.8-0.4,7.9,0.3"/>
		<path class="st2" d="M60.1,52.1c2.7-0.2,5.3-0.3,8,0.2c0.1,0,0.2,0.2,0.2,0.3c0,0.1-0.2,0.2-0.3,0.2c-1.2-0.3-2.6-0.5-3.9-0.5
			c-1.3-0.1-2.6,0-3.9,0.1C59.9,52.3,59.9,52.1,60.1,52.1L60.1,52.1z"/>
	</g>
	<g>
		<path class="st1" d="M62.6,55.3c0,0,5.3,0.8,8.3,2.4"/>
		<path class="st2" d="M62.6,55.2c1.1,0.1,9.5,1.3,8.8,2.8c-0.1,0.3-0.5,0.4-0.8,0.2c-2.4-1.4-5.3-2.2-8.1-2.8
			C62.4,55.4,62.5,55.2,62.6,55.2L62.6,55.2z"/>
	</g>
	<g>
		<line class="st1" x1="63.1" y1="57.4" x2="73.5" y2="66"/>
		<path class="st2" d="M63.2,57.3l10.9,7.9c1,0.7-0.1,2.2-1.1,1.5c-0.1-0.1-9.9-9.1-10-9.2C62.9,57.4,63.1,57.2,63.2,57.3L63.2,57.3
			z"/>
	</g>
</g>
<g class="st3">
	<g class="st4">
		<g>
			<path class="st5" d="M118.5,79.5c4.8,3.8,9.2,7.2,13.6,10.7c11.1,8.8,22.2,17.6,33.4,26.3c1.4,1.1,1.5,1.9,0.5,3.4
				c-10.9,15.5-21.8,31-32.7,46.5c-0.4,0.6-0.9,1.1-1.6,1.9c-16.2-12.8-32.2-25.4-48.5-38.3C94.9,113.1,106.6,96.5,118.5,79.5z
				 M139.7,123c0.2,0.3,0.4,0.5,0.6,0.8c-2.2,3.6-4.6,7.1-6.7,10.7c-1.6,2.8-3.2,5.6-4.2,8.6c-1,2.9,0.2,5.5,2.6,7.3
				c2.4,1.8,5.2,1.5,7.5,0c1.1-0.7,2-2.8,1.9-4.1c-0.2-2.5-2.2-3.8-4.7-3.8c-1.1,0-2.8,0.6-3.2,1.4c-0.9,2,0.4,3.5,2.1,4.5
				c0.1,0.1,0.2,0.3,0.2,0.5c-3.1,0.6-4.8-1-3.9-3.8c0.4-1.4,1.2-2.7,2-3.9c3.8-5.3,7.7-10.6,11.6-15.8c2.6-3.5,2.6-3.5,6.1-1.1
				c1.3,0.9,2.3,1.2,2.9-0.6c-3.8-3.2-7.6-6.3-11.4-9.3c-0.5-0.4-1.5-0.1-2.9-0.2c1.3,1.7,2.1,2.6,2.9,3.7c-5.2,3-10.1,5.8-15.9,9.2
				c-0.5-7-0.9-13.3-1.4-20c1.6,0.2,2.5,0.3,3.8,0.5c-0.3-1-0.4-1.9-0.8-2.2c-4.3-2.5-8.5-5.2-12.9-7.4c-2.4-1.2-5.5,0.4-6.5,2.6
				c-1.2,2.7-0.7,6,1.8,7.4c1.3,0.7,3.1,0.6,4.6,0.3c0.5-0.1,1.4-1.8,1.1-2.4c-0.6-1.3-1.6-2.6-2.8-3.5c-0.7-0.5-2,0.1-3,0.1
				c0.9-2.5,2.3-3.3,4.5-2.4c1.4,0.6,2.7,1.5,4.1,2.2c1.5,0.8,1.8,1.8,0.9,3.3c-2.1,3.6-4.1,7.2-6,10.9c-2.1,4.1-3.9,8.3-5.9,12.7
				c-1.3-0.9-2.4-1.9-3.6-2.6c-0.4-0.2-1.2-0.1-1.6,0.1c-0.2,0.1-0.3,1.2-0.1,1.4c3.4,2.5,6.8,5,10.3,7.4c0.3,0.2,1.2-0.1,1.4-0.4
				c0.2-0.3,0-1-0.3-1.4c-0.5-0.6-1.1-1-1.7-1.4c-1.7-0.9-2-2-1-3.8c2.4-4.3,4.6-8.8,6.9-13.2c0.9-1.6,2-3.2,3.4-5.4
				c0.1,1.4,0.2,2,0.2,2.6c-0.1,5.5-0.2,11-0.2,16.6c0,1,0.4,2.4,1.1,2.7c0.6,0.3,2-0.3,2.8-0.8C130.9,128.6,135.3,125.8,139.7,123z
				"/>
			<path class="st2" d="M139.7,123c-4.4,2.8-8.8,5.6-13.2,8.3c-0.8,0.5-2.2,1.1-2.8,0.8c-0.7-0.4-1.1-1.8-1.1-2.7
				c0-5.5,0.1-11,0.2-16.6c0-0.6-0.1-1.2-0.2-2.6c-1.4,2.2-2.5,3.8-3.4,5.4c-2.3,4.4-4.5,8.9-6.9,13.2c-1,1.8-0.7,2.9,1,3.8
				c0.6,0.4,1.3,0.8,1.7,1.4c0.3,0.3,0.5,1.1,0.3,1.4c-0.2,0.3-1.1,0.6-1.4,0.4c-3.5-2.4-6.9-4.9-10.3-7.4c-0.2-0.2-0.2-1.2,0.1-1.4
				c0.4-0.3,1.2-0.4,1.6-0.1c1.2,0.7,2.3,1.7,3.6,2.6c2.1-4.5,3.9-8.7,5.9-12.7c1.9-3.7,3.9-7.3,6-10.9c0.9-1.6,0.7-2.5-0.9-3.3
				c-1.4-0.7-2.7-1.6-4.1-2.2c-2.3-0.9-3.7-0.1-4.5,2.4c1.1-0.1,2.4-0.6,3-0.1c1.2,0.8,2.2,2.1,2.8,3.5c0.3,0.6-0.6,2.3-1.1,2.4
				c-1.5,0.2-3.4,0.4-4.6-0.3c-2.4-1.3-3-4.7-1.8-7.4c1-2.2,4.1-3.8,6.5-2.6c4.5,2.2,8.7,4.8,12.9,7.4c0.4,0.3,0.4,1.2,0.8,2.2
				c-1.4-0.2-2.2-0.3-3.8-0.5c0.5,6.6,0.9,13,1.4,20c5.8-3.3,10.7-6.2,15.9-9.2c-0.9-1.1-1.6-2-2.9-3.7c1.4,0.1,2.4-0.2,2.9,0.2
				c3.8,3,7.5,6.1,11.4,9.3c-0.6,1.8-1.6,1.5-2.9,0.6c-3.5-2.4-3.6-2.4-6.1,1.1c-3.9,5.2-7.8,10.5-11.6,15.8c-0.8,1.2-1.6,2.5-2,3.9
				c-0.9,2.8,0.7,4.4,3.9,3.8c-0.1-0.2-0.1-0.4-0.2-0.5c-1.7-1.1-3-2.5-2.1-4.5c0.4-0.8,2.1-1.4,3.2-1.4c2.4,0,4.5,1.3,4.7,3.8
				c0.1,1.4-0.8,3.4-1.9,4.1c-2.3,1.5-5.1,1.8-7.5,0c-2.4-1.8-3.7-4.4-2.6-7.3c1.1-3,2.6-5.8,4.2-8.6c2.1-3.7,4.5-7.2,6.7-10.7
				C140.1,123.5,139.9,123.2,139.7,123z"/>
		</g>
		<g>
			<path class="st5" d="M19,106.2c3.2,7.7,6.2,15.3,9.6,22.6c1.8,3.9,2.2,7.4,0.6,11.5c-3.3,8.9-6.2,17.9-9.2,26.9
				c-0.2,0.5-0.5,1-0.9,1.8c-1.8-0.6-3.6-1.2-5.4-1.9c-18.7-7.1-37.3-14.3-56-21.4c-1.9-0.7-2.3-1.5-1.7-3.4
				c4.3-12.3,8.5-24.7,12.7-37.1c3.1-9.1,6.2-18.1,9.2-27.2c0.7-2,1.4-2.6,3.6-1.8c18,7,36.1,13.9,54.1,20.8
				c0.2,0.1,0.4,0.3,1.1,0.7C30.7,100.6,24.9,103.3,19,106.2z M19.8,131.4c-0.3,0.3-0.6,0.9-0.9,0.8c-2.6-0.1-5.7,0.5-7.7-0.7
				c-5.1-3.1-9.8-7-14.5-10.8c-0.4-0.3-0.2-2,0.3-2.7c3-5.1,6-10.1,9.2-15.1c0.6-0.9,1.8-1.8,2.8-1.9c1.7-0.2,2.8-0.7,2.7-2.6
				c-3.9-0.6-7.7-1.3-11.5-1.7c-0.7-0.1-1.5,0.9-2.6,1.7c1.8,0.8,2.7,1.2,3.8,1.7c-1.8,9.1-6.6,16.5-13.2,23
				c-1-5.4-1.8-10.7-2.3-16.1c-0.1-0.5,1.1-1.4,1.8-1.7c2-0.7,2.3-1.8,1.4-3.5c-5,1.5-9.9,3-14.7,4.5c-0.4,0.1-0.9,1.2-0.8,1.6
				c0.1,0.4,1,0.8,1.6,0.9c0.6,0.1,1.3-0.2,1.9-0.4c1.3-0.4,2-0.2,2.4,1.3c2.5,9.5,5.2,19,7.7,28.5c1,3.7,0.9,3.8-2.8,4.6
				c-2.2,0.5-2.8,1.4-1.4,3.5c4.7-1.4,9.4-2.8,14.1-4.1c2-0.6,2-1.8,0.9-3.5c-1.6,0.6-3.1,1.2-4.6,1.8c-1.3,0.5-2.1,0.3-2.3-1.3
				c-0.6-3.5-1.5-7-1.8-10.6c-0.1-1.2,1.1-2.6,2-3.6c0.2-0.3,1.8,0.5,2.6,1c1.6,1.1,3.1,2.3,4.7,3.4c6,4,12.3,6.9,19.7,5.1
				c2.1-0.5,4.1-1.9,5.7-3.5c1.7-1.6,1.2-3.9-0.5-5.3c-2.5-2-6.7-2-8.9,0.3c-0.7,0.7-1.3,2-1.1,2.9c0.2,0.8,1.4,1.8,2.3,2
				C16.9,131.6,18.3,131.4,19.8,131.4z"/>
			<path class="st2" d="M19.8,131.4c-1.5,0-2.9,0.3-4.1-0.1c-0.9-0.3-2.1-1.2-2.3-2c-0.2-0.8,0.4-2.2,1.1-2.9
				c2.2-2.3,6.4-2.4,8.9-0.3c1.7,1.4,2.2,3.7,0.5,5.3c-1.6,1.5-3.6,3-5.7,3.5c-7.4,1.8-13.7-1.1-19.7-5.1c-1.6-1.1-3.1-2.4-4.7-3.4
				c-0.8-0.5-2.4-1.3-2.6-1c-0.9,1-2.1,2.4-2,3.6c0.3,3.6,1.2,7.1,1.8,10.6c0.3,1.6,1,1.8,2.3,1.3c1.5-0.6,3-1.2,4.6-1.8
				c1.1,1.7,1.1,2.9-0.9,3.5c-4.7,1.4-9.3,2.8-14.1,4.1c-1.4-2.1-0.7-3.1,1.4-3.5c3.7-0.8,3.7-0.9,2.8-4.6c-2.5-9.5-5.2-19-7.7-28.5
				c-0.4-1.5-1.1-1.7-2.4-1.3c-0.6,0.2-1.3,0.4-1.9,0.4c-0.6-0.1-1.4-0.5-1.6-0.9c-0.1-0.5,0.3-1.5,0.8-1.6c4.9-1.6,9.8-3,14.7-4.5
				c1,1.7,0.6,2.8-1.4,3.5c-0.7,0.3-1.8,1.2-1.8,1.7c0.5,5.4,1.3,10.7,2.3,16.1c6.6-6.5,11.3-13.8,13.2-23c-1.1-0.5-2.1-0.9-3.8-1.7
				c1.2-0.8,2-1.8,2.6-1.7c3.8,0.4,7.6,1.1,11.5,1.7c0.1,1.9-0.9,2.3-2.7,2.6c-1,0.1-2.3,1-2.8,1.9c-3.2,4.9-6.2,10-9.2,15.1
				c-0.4,0.7-0.7,2.4-0.3,2.7c4.7,3.7,9.4,7.7,14.5,10.8c2,1.2,5.1,0.6,7.7,0.7C19.2,132.2,19.5,131.7,19.8,131.4z"/>
		</g>
		<g>
			<path class="st5" d="M77.2,80c4.2,10,8,19.9,12.6,29.4c2.2,4.6,1.6,8-1.6,11.5c-1.9,2.1-3.2,4.7-5,6.9c-1.4,1.7-1.2,2.8,0.6,4.1
				c4.1,3.1,8.1,6.3,12.2,9.5c0.8,0.6,1.5,1.3,2.7,2.2c-3.5,1.7-6.6,3.2-9.7,4.7c-12.9,6.1-25.8,12.2-38.7,18.3
				c-3.7,1.8-3.7,1.8-5.3-2c-7.4-17.6-14.9-35.3-22.2-52.9c-2.1-5-2-5.1,2.8-7.4C42,96.5,58.6,88.6,75.3,80.8
				C75.8,80.5,76.3,80.3,77.2,80z M58.4,125.5c1.8,0.8,3.3,1.7,4.8,1.9c6.8,0.8,14.4-5.3,16-12.6c1.3-6.2-2.4-11.6-9.7-13.9
				c-3.2-1-6.5-1.6-9.9-2.5c0.3-1.6,0.6-3.2,1-5c-2.3-0.2-4.4-0.3-6.5-0.5c-0.1,0.5-0.2,0.9-0.2,1.2c-0.3,4.8-0.3,4.7-5,5.8
				c-3.4,0.8-6.8,1.8-9.2,4.6c-2.1,2.4-2.2,5.2-0.2,7.2c2.5,2.4,7.9,2.8,10.4,0.4c0.9-0.8,1.6-3.1,1.1-3.7c-0.7-1-2.6-1.6-3.9-1.5
				c-0.8,0.1-1.5,1.9-2.5,3.4c-0.8-0.5-2.8-1.1-2.8-1.8c-0.1-1.2,0.8-2.9,1.8-3.5c2-1.2,4.3-2,6.6-2.6c2.9-0.8,3.1-0.3,3.3,2.8
				c0.5,8.2,1.2,16.3,1.9,24.5c0.3,3.3,1,6.5,1.5,10c-1.7,0-3,0-4.3,0c-1.7,0-3.3-0.2-5-0.1c-0.5,0-1.3,0.8-1.3,1.2
				c0,0.6,0.5,1.4,1,1.7c0.5,0.3,1.2,0.2,1.9,0.2c5.7,0.3,11.4,0.6,17.1,1c2.3,0.2,3-0.6,2.6-3.1c-2.1-0.2-4.3-0.1-6.3-0.5
				c-0.9-0.2-2.3-1.1-2.4-1.9C59.3,134,58.9,129.8,58.4,125.5z"/>
			<path class="st2" d="M58.4,125.5c0.5,4.3,0.9,8.5,1.6,12.7c0.1,0.8,1.5,1.7,2.4,1.9c2,0.4,4.2,0.4,6.3,0.5
				c0.5,2.4-0.3,3.2-2.6,3.1c-5.7-0.4-11.4-0.7-17.1-1c-0.6,0-1.4,0.1-1.9-0.2c-0.5-0.4-1-1.2-1-1.7c0-0.5,0.8-1.2,1.3-1.2
				c1.6-0.1,3.3,0.1,5,0.1c1.3,0,2.5,0,4.3,0c-0.5-3.6-1.2-6.8-1.5-10c-0.7-8.1-1.4-16.3-1.9-24.5c-0.2-3.1-0.5-3.6-3.3-2.8
				c-2.3,0.6-4.6,1.4-6.6,2.6c-1,0.6-1.9,2.3-1.8,3.5c0,0.7,2,1.3,2.8,1.8c1.1-1.5,1.7-3.3,2.5-3.4c1.3-0.1,3.2,0.5,3.9,1.5
				c0.5,0.7-0.2,2.9-1.1,3.7c-2.5,2.4-8,2.1-10.4-0.4c-2-2-1.9-4.8,0.2-7.2c2.5-2.8,5.8-3.8,9.2-4.6c4.7-1,4.7-1,5-5.8
				c0-0.4,0.1-0.7,0.2-1.2c2.1,0.2,4.2,0.3,6.5,0.5c-0.3,1.8-0.7,3.4-1,5c3.4,0.8,6.7,1.4,9.9,2.5c7.3,2.4,11,7.8,9.7,13.9
				c-1.5,7.3-9.1,13.4-16,12.6C61.7,127.3,60.2,126.3,58.4,125.5z"/>
			<path class="st5" d="M61.3,123.1l0.8-20c0,0,6.7-5.4,12.5,7.8C74.5,110.9,77.3,126.1,61.3,123.1z"/>
		</g>
	</g>
	<g class="st4">
		<circle class="st5" cx="137.3" cy="145.1" r="1.4"/>
		<ellipse transform="matrix(0.9142 -0.4053 0.4053 0.9142 -47.3359 68.3365)" class="st2" cx="137.7" cy="146" rx="0.5" ry="0.9"/>
	</g>
	<circle class="st6" cx="113.3" cy="105.1" r="1.4"/>
	<ellipse transform="matrix(0.5 -0.866 0.866 0.5 -35.0993 151.4948)" class="st7" cx="113.6" cy="106.1" rx="1.2" ry="1.4"/>
	<g class="st4">
		<path class="st2" d="M70.9,123.7c-1.9,3.6-6.2,4.8-9.9,2.8c-2.1-1.1-2.6-2.4-1.5-4.7c0,0,0.1,0.2,0.1,0.2
			c-0.1-0.6,0.3-1.1,0.5-1.6c0.4-0.9,0.7-1.9,1.4-2.6c1.1-1.3,3.5-2.6,4.9-1.1c0.7,0.5,1.4,0.9,1.6,2.1c0,0.8-0.5,1.3-0.8,1.6
			c0,0-0.1,0-0.2,0c0,0-0.7-0.7-0.7-0.7c0,0,0-0.2,0-0.2c0.5-0.6,0.4-0.7-0.2-1.1c-0.6-0.4-1.2-0.7-1.9-0.6c-0.9,0.1-2,0.6-2,1.6
			c0.1,0.9,0.9,1.6,1.6,2.2c1.9,1.2,4.4,1.2,6.6,0.9C70.6,122.6,70.9,123.7,70.9,123.7L70.9,123.7z"/>
	</g>
	<g class="st4">
		<path class="st5" d="M17.8,128.2c0.8-0.9,2.2-1.2,3.1-0.4c0.6,0.5,0.7,1.1,1.1,1.6c0.2,0.2-0.2,0.5-0.3,0.3
			c-0.1-0.3-0.3-0.7-0.5-1c-0.2-0.1-0.9-0.6-1.3-0.4c-0.3,0.1-0.6,0.5-0.7,0.8c0,0.5-0.4,1-1,1c-0.8,0-1.3-1.1-0.7-1.6
			C17.6,128.5,17.8,128.2,17.8,128.2L17.8,128.2z"/>
	</g>
</g>
<g class="st3">
	<path class="st6" d="M27.1,212.7c2.1-0.4,3.5-0.6,4.9-0.8l0,0c-5.3,2-6.5,2.3-11.7,4.3c-0.3-0.5,0.3-0.5,0-1c3.8-0.2,5.4-3.7,5-6.4
		c-0.5-3.1-1-6.2-1.4-9.3c-0.3-2.6-1.6-3.3-4.1-2.2c0,3.2-1.6,5.5-5,5.8c-3.6,0.3-7.3,0.3-9.5-3.5c-2.9,5.9,0.6,12.8,6.4,12.4
		c1.2-0.1,2.4-0.9,3.4-1.7c0.3-0.2,0-1.8-0.4-2.1c-0.9-0.6-2.1-0.7-3.2-1c-0.1,0.3-0.1,0.6-0.2,1c0.8,0.2,1.5,0.4,2.3,0.6
		c0,0.3,0.1,0.5,0.1,0.8c-0.8,0.2-1.8,0.7-2.5,0.4c-0.6-0.2-1.3-1.4-1.1-2c0.2-0.8,1.3-2.1,1.6-2c1.7,0.6,4.1,1.2,4.8,2.6
		c1.1,2-0.7,3.5-2.8,4.2c-5,1.5-11.8-2.6-13-7.9c-1.2-5.1,2.9-10.7,8.5-11.3c2-0.2,4.6-0.3,5.9,0.7c3.3,2.6,6.4,1.8,9.8,0.6
		c0.5-0.2,1.1-0.3,2-0.5c0.1,1,0.2,1.9,0.3,2.5c2.5-0.9,4.9-2.2,7.3-2.3c2.7-0.1,4.8,2.6,4.2,4.6c0-3.3-4.4-2.4-6-2.1
		c-2,0.4-4.9,2.3-5.3,4C26.6,204.6,27.1,208.6,27.1,212.7z M6.6,196.4c0.8,1.5,1.4,2.6,2.1,3.7c1.5,2.4,3.8,2.6,6,1.6
		c2.4-1,2.3-3.2,1.1-5.2C13.8,193.1,9.6,193.2,6.6,196.4z"/>
	<path class="st6" d="M80.3,217.1c-1.8,0.1-6.8,0.2-9.2,0.4c4.2-1.1,3.1-4.4,2.7-7c-1.1-7.1-2.4-14.3-4-21.3c-0.3-1.6-2-2.8-3.1-4.3
		c2.3-0.3,5.3-0.7,7.9-1c-2.5,5.3,0.3,10.5-0.2,16.4c1.5-1,2.3-1.5,3.2-2.1c3.1-2,7.5-1.8,10.1,0.6c2.7,2.6,2.9,5.1,0.6,9.1
		c-0.4,0.6-0.7,1.2-1.1,1.9c-2.7,4.5-2.5,5.1,2.3,7.6c-1.1,0-2.7,0.5-3.3-0.1c-1-1-1.9-2.6-1.8-3.9c0.1-1.9,1.2-3.6,1.7-5.5
		c1.4-5.1-0.9-9.1-5.2-9.1c-3.5,0-5.9,2.5-5.8,6c0.1,2.7,0.9,7.7,1.3,10.3C76.5,216.5,82.3,215.1,80.3,217.1z"/>
	<path class="st6" d="M-13.5,195.5c0,0.5-0.7,0.7-1.1,0.4c-0.7-0.7-1.4-1.5-1.3-2.2c0.2-1.2,1.8-2.5,3-3c3.8-1.4,8.8,1.4,10.2,5.4
		c1.4,3.8-0.2,7.2-4.2,9.2c-4.5,2.3-8.8,1.6-12.8-1.2c-3.3,5.1-3.2,9.1,0,11l-7.2-0.8c3.6-0.4,3.2-3,3.6-5.4
		c1-6.6,2.2-13.3,3.4-20.1c-0.8-0.2-1.9-0.6-3-0.9c0-0.1,0-0.3,0.1-0.4c2.4,0,4.7,0,7.4,0c-1.1,3.4-2.1,6.7-3.2,10
		c-0.8,2.4-1.4,4.6,1.3,6.4c2.8,1.9,5.6,2.1,8.4,0.2c3.8-2.5,4.3-9.1,0.8-11.6c-1.2-0.8-3.4-0.8-4.8-0.3
		C-13.3,192.4-13.4,193.9-13.5,195.5z"/>
	<path class="st6" d="M123.3,192.5c0,3.9,0,7.1,0,10.4c0,2.2-0.4,4.7,2.5,5.8c3,1.2,5.7,0.7,8-1.5c3.6-3.4,2.4-10.9-2.1-12.1
		c-1.3-0.4-3.4,0.3-4.4,1.2c-0.7,0.6-0.2,2.6-0.3,4.2c-0.4-0.2-1.9-0.6-2.1-1.3c-0.3-0.9,0.1-2.4,0.8-3.2c2.4-3.1,7.7-3.1,11.1-0.3
		c3.3,2.7,3.7,7,1,10.3c-3.1,3.9-7.3,5.1-13.7,4c-1.5,5.3-0.3,9.2,3.3,10.5l-6.3,1.3c0.5-1.4,1.4-2.8,1.3-4
		c-0.6-7-1.5-13.9-2.3-20.8c-0.1-0.5-0.2-0.9-0.4-1.6c-1.3,0.3-2.5,0.5-3.7,0.7c-0.1-0.3-0.2-0.5-0.2-0.8
		C118.4,194.2,120.9,193.4,123.3,192.5z"/>
	<path class="st6" d="M-32.4,184.8c2.5,0.4,4.5,0.7,6,0.9c-0.8,2.8-1.6,5.5-2.2,8.3c-0.6,2.5-0.8,5-1.4,7.5
		c-0.5,2.1-0.4,3.6,2.2,4.3h-3.9c-0.2-1.2-0.4-2.3-0.6-3.7c-5.1,2.2-9.4,1.5-12.8-2.8c-3.1-3.8-2.5-7.4,1.4-10.3
		c1.3-0.9,2.9-1.5,3.8-2.7c0.6-0.7,0.4-2.2,0.6-3.4c-1.2-0.1-2.3-0.2-3.5-0.4c0,0.4,0,0.8,0,1.3c0.8,0,1.5,0,2.4,0c0,0.4,0,1-0.1,1
		c-1,0.2-2.1,0.2-3.1,0.3c0.1-1.2-0.2-3.1,0.3-3.3c1.3-0.6,3.5-1,4.4-0.4c0.9,0.7,1.4,3.2,0.9,4.3c-0.9,1.9-2.7,3.3-4.1,5
		c-2.3,2.8-2.5,6.7-0.4,9c2.4,2.6,6.6,3.1,9.6,0.9c0.6-0.5,1.4-1.2,1.5-1.9c0.4-3.7,0.6-7.5,0.7-11.2
		C-30.7,186.8-31.6,186-32.4,184.8z"/>
	<path class="st6" d="M157.7,200.9c0.8,0,1.6,0.1,2.4,0.1c0,0.4,0,0.7,0.1,1.1c-1.1,0-2.2,0-3.3,0c0.2-1.1,0.2-3.1,0.7-3.2
		c1.5-0.5,3.7-0.8,4.8-0.1c1.9,1.3,1.4,3.4-0.1,5c-2.7,2.9-8.4,3.2-12.8,0.7c-3.7-2.1-5.1-6-3.7-10.3c2.1-6.1,8.4-9.4,13.7-7.1
		c3.1,1.3,3.6,3.8,1.4,6.3c-2.7,3-7.8,4.1-11.9,2.5c-0.3,6.5,5.5,11.1,10.6,8.3c1.1-0.6,1.6-2.3,2.4-3.5c-1.4-0.3-2.8-0.7-4.1-1
		C157.8,200.2,157.7,200.6,157.7,200.9z M148.8,192.7c3.6,3.2,7.3,4.8,10.3,0.1c1.3-2-0.6-3.8-2.6-4.7
		C153.4,186.6,151,188.1,148.8,192.7z"/>
	<path class="st6" d="M169.7,189c-0.3,3.6,1.1,6.5,3.8,7.7c2.2,0.9,5.1,0.5,7.6,0.2c0.7-0.1,1.4-1.8,1.8-2.8
		c0.1-0.3-0.8-1.3-1.3-1.4c-1.1-0.1-2.2,0.3-3.3,0.5c0.1,0.3,0.2,0.7,0.3,1c0.7-0.2,1.5-0.3,2.2-0.5c0.1,0.3,0.2,0.6,0.3,0.9
		c-0.8,0.4-1.6,0.9-2.5,1c-0.5,0-1.5-0.8-1.5-1.2c0-0.9,0.5-2.3,1-2.4c1.6-0.3,3.6-0.7,4.9,0c1.9,1.1,1.5,3,0.1,4.7
		c-2.3,2.7-7.5,3.5-11.8,1.6c-3.9-1.7-5.9-4.9-5.4-8.9c0.8-6.1,6.3-10.6,12.3-9.6c1.6,0.3,4.1,1.8,4.2,3c0.2,1.6-1.1,3.9-2.5,4.9
		C177.2,189.8,173.6,190.4,169.7,189z M170.3,188.1c2,1,5.4,0.4,6.7-0.1c1.2-0.4,3.2-1.9,3-2.5c-0.5-1.7-1.4-3.9-2.9-4.6
		c-3.1-1.6-5.8,0.4-7.3,4.8"/>
	<path class="st6" d="M115.4,204.2c0.1,5.3-5.1,10.6-10.4,10.5c-5.4,0-10.6-4.4-10.8-9.2c-0.2-3.9,5.3-9.9,9.1-10
		C110.1,195.3,115.4,199.1,115.4,204.2z M97.7,204.7c0,5.3,3,9,7.3,9.1c4.1,0.1,7.2-3.7,7.2-8.7c0-5-3.1-7.9-8.6-7.9
		C100.2,197.1,97.7,200.2,97.7,204.7z"/>
	<path class="st6" d="M61.8,211.2c-2,1.1-2.9,1.7-3.9,2.2c0.9,0.8,1.8,2.3,2.7,2.3c1.6,0,3.7-0.5,4.6-1.6c0.6-0.7-0.2-3.2-1.1-4.2
		c-1.7-1.8-4-3-6-4.6c-3-2.5-3.6-5.4-1.7-7.9c2.1-2.8,7.3-4,9.7-1.9c0.9,0.8,1.6,3.3,1.1,3.9c-0.9,1-2.8,1.5-4.2,1.5
		c-0.5,0-1-2-1.5-3.2c0.4-0.1,0.8-0.3,1.2-0.4c0.2,0.6,0.2,1.4,0.6,1.7c0.5,0.5,1.4,0.6,2.1,0.9c0.2-0.7,0.7-2,0.5-2.1
		c-1.3-0.9-2.9-2.2-4.2-2c-1.2,0.2-2.9,2.3-2.8,3.3c0.3,1.9,1.6,3.9,2.9,5.5c1,1.3,2.7,2,3.9,3.1c2,1.8,2.6,4.2,1.2,6.5
		c-1.5,2.6-3.9,4.2-6.9,3.3c-1.2-0.4-2.4-1.9-3-3.1c-0.3-0.7,0.4-2.4,1.2-3C58.5,210.8,59.9,211.2,61.8,211.2z"/>
	<path class="st6" d="M-52.3,179.2c0.5,1,1.1,2,1.6,3c0.6-0.3,1.6-0.8,1.6-0.9c-0.4-1.3-0.7-3-1.6-3.7c-1-0.7-3.1-0.9-4-0.2
		c-1,0.7-2,2.8-1.7,3.9c0.9,2.8,2.6,5.4,4,8c1.4,2.6,1.4,5.1-0.9,7.2c-2,1.8-6.1,1.9-8.1,0.1c-1.8-1.6-2.3-3.6-0.5-5.4
		c1.4-1.4,3.2-1.4,4.7,1.3c-1.1-0.3-1.7-0.5-2.3-0.5c-0.6,0-1.6,0.1-1.8,0.5c-0.3,0.5-0.1,1.5,0.3,1.9c1.5,2,3.6,3,6,1.7
		c2.5-1.4,1.6-3.5,0.5-5.3c-1.3-2-2.8-4-4.1-6c-2-3.2-1.5-6.7,1.1-8.3c2.8-1.8,8.4-0.7,9.7,2.1c0.5,1,0.2,3.2-0.5,3.7
		c-1,0.7-3,0.7-4.2,0.2c-0.7-0.3-0.7-2.2-1-3.4C-53,179.3-52.6,179.3-52.3,179.2z"/>
	<path class="st6" d="M33.5,203.9c-1.2-0.9-2.4-1.8-3.7-2.6c0.6-0.9,1.1-2.3,2-2.5c0.9-0.3,2.2,0.4,3.3,0.7
		c-0.1,0.4-0.3,0.8-0.4,1.2l-2.2-0.7c-0.3,0.5-0.2,0.4-0.5,0.9c0.6,0.6,1.3,1.2,1.9,1.8c0.1,0.1,0.2,0.3,0.3,0.5
		C33.9,203.4,33.7,203.7,33.5,203.9z"/>
	<path class="st6" d="M105.5,200.6c-1.3-1.5-0.7-0.3-1.3-0.5c0-0.1-1.1-0.6-1-1c0.1-0.5,1-1,1.9-0.5c0.6,0.3,1,1,1.5,1.3
		c0.3,0.1,0.3,1.6-0.1,1.9c-1,0.7-2.5,1.7-3.3,1.4c-1-0.4-3.1-2-2.7-3.7c1.3,0.6,1.6,1.3,2.9,1.9
		C104.3,201.7,105.2,201.4,105.5,200.6L105.5,200.6z"/>
	<path class="st6" d="M34.1,203.2c0,0,4.5-0.8,3.7-3.9c-0.9-3.5-2.6-3.5-2.6-3.5l0.1-1.1c0,0,6.5,1.1,3.2,7.8c0,0-3.6,3.1-5.2,1.5"
		/>
	<g class="st4">
		<g>
			<path class="st5" d="M-52.2,178.6c0.2,1.3,0.5,1.5,0.7,2c0.1,0.2,0.2,0.4,0.3,0.6c0.5,0.9,2.1,0.4,2.6-0.4
				c0.4-0.8-0.2-1.7-0.7-2.3c-1-2.5-5.7-2.3-7.3-0.5c-2.9,4.4,1.4,9.1,3.6,12.8c1.5,2.9,0.7,6.7-3.2,6.5c-2.3,0.1-6.2-0.9-5.8-4
				c0.3-1.6,2.1-3,3.8-2.3c1.1,0.4,1.7,1.7,0.6,2.5c0,0-0.1-0.1-0.1-0.1c0.9-0.8,0.3-1.7-0.7-2.1c-0.9-0.3-1.8,0.2-2.4,0.9
				c-2.1,2.7,2.2,4.8,4.5,4.7c2.1,0.2,3.7-1.1,3.5-3.3c-0.1-3-2.7-4.9-4-7.5c-1.5-2.5-2.5-6-0.5-8.6c1.9-2,7.1-2.2,8.3,0.8
				c0,0-0.1-0.2-0.1-0.2c0.3,0.4,0.6,0.8,0.8,1.2c0.7,1.5-0.8,3-2.2,3.2c-2.3,0-3.2-2.5-2.5-4.7C-53,177.9-52.2,178.6-52.2,178.6
				L-52.2,178.6z"/>
		</g>
	</g>
	<g class="st4">
		<path class="st5" d="M-12.5,192.9c2.1-0.2,3.2,2.4,1.5,3.8c-1.1,0.9-2.6,0.2-3.5-0.6c-0.2-0.2-0.4-0.3-0.5-0.6
			c0-0.1,0.2-0.4,0.3-0.5c-1.4-2.7,0.6-3.7,3.1-4.1c6.5-0.7,10.8,7.5,6.7,12.6c-3.3,4.4-12.4,4.9-15.1-0.3c0,0,0.1-0.1,0.1-0.1
			c2.1,3.4,6.4,3.6,9.9,2.7c5.7-1.3,7.7-8.7,3.4-12.7c-1.9-1.9-5.3-2.7-7.6-1.1c-0.9,0.6-1,2,0,2.6c0.1,0,0.4-0.2,0.5-0.2
			c0.6,0.5,1.2,1.6,2.1,1.3c0.3-0.1,0.7-0.5,1-0.7c0-0.5-0.1-1-0.5-1.4c-0.3-0.4-0.8-0.6-1.3-0.6V192.9L-12.5,192.9z"/>
	</g>
	<g class="st4">
		<path class="st5" d="M9.9,200.2c0.4-1.5-0.5-2.6-2.1-2.5c-1.2,0.1-0.8,2.1-0.2,2.8c1,0.9,2.4,0.7,3.7,0.8c1.9,0,4.1-0.4,5.2-1.9
			c0.2-0.4,0.3-0.9,0.2-1.3c0.2-1.1-0.9-2-2.2-2.7c-2.4-1.6-5.5-2-8.1-0.4c0,0-0.3-0.4-0.3-0.4c2.9-2.3,7.1-1.8,10.1,0.2
			c2.1,1,3.2,3.8,1.9,5.8c-2.1,2.9-6.1,3.1-9.4,2.6c-2.2-0.2-3.7-2.3-3.5-4.4c0-1.2,1.2-2.7,2.6-2.6c1.6,0,3.3,1.3,3,3
			c-0.1,0.5-0.2,0.9-0.6,1.2L9.9,200.2L9.9,200.2z"/>
	</g>
	<g class="st4">
		<path class="st5" d="M86.1,211.2c-1,1.5-1.9,4.6,0.6,4.9c0.9,0.2,2,0.2,2.7-0.4c1.2-0.8,0.4-2.8-0.9-3c-1.7-0.4-1.1,1.3-0.6,2.2
			c-0.2-0.3-0.4-0.6-0.5-1c-0.1-0.4-0.3-0.8,0-1.3c0.9-0.9,2.3-0.2,3,0.6c0.4,0.6,0.4,1.3,0.5,2c0.1,0.5-0.1,1.1-0.4,1.6
			c-1.5,1.5-4.6,1.1-5.8-0.5c-1.1-1.8,0.2-3.8,1.3-5.2C86,211.1,86.1,211.2,86.1,211.2L86.1,211.2z"/>
	</g>
	<g class="st4">
		<path class="st5" d="M102.6,197.5c-2.7,3.4-0.5,4.6,3,4.2c0.6-0.1,1.2-0.4,1.2-1.1c0-0.2,0.1-0.4-0.4-0.5
			c-0.6-0.1-0.6,0.1-0.4-0.2c-0.1-0.1-0.4,0-0.2-0.2c0-0.1-0.2,0-0.3,0.1l0.1-0.2c0,0,0,0,0,0c0,0,0,0,0,0c-0.1,0-0.3,0.4-0.4,0.4
			c0-0.1,0,0-0.1,0c-0.3,0.3,0-0.7-0.3-0.6c-0.1,0-0.2,0.1-0.2,0.2c-0.2,0.3-0.2-0.2-0.3-0.2c-0.1,0,0-0.2,0-0.4
			c-0.1-0.2-0.3,0-0.4,0.2c-0.1,0.4,0.1,0.7,0.3,0.9c-0.3-0.5-1-1.6,0-1.7c0.2,0,0.4,0,0.5,0c0.2,0,0.3,0.2,0.5,0.1
			c1.3,0,2.5,1.7,1.7,3c-1,1.5-5.8,1-5.7-1.2c-0.1-0.2,0.2-0.3-0.2-0.5c-0.1-0.1-0.3-0.2-0.4-0.3c0.2-0.9,0.9-1.7,1.8-2
			C102.5,197.4,102.6,197.5,102.6,197.5L102.6,197.5z"/>
	</g>
	<g class="st4">
		<path class="st5" d="M126.9,198.6c-0.1,0.2-0.2,0.6-0.2,0.8c0,0.6,0.6,0.7,1.1,0.8c1.2,0.2,2.5,0.2,3.1-1.1c0,0-0.1,0.5-0.1,0.5
			c0-1-0.5-1.6-1.6-1.6c-0.5-0.1-0.9,0-1.5,0l-0.2-0.4c0.5-0.2,1-0.3,1.5-0.4c1.8-0.5,3.2,0.7,3.3,2.5c-0.3,0.8-0.9,1.6-1.7,2
			c-2.8,1.3-7.2-0.6-5-4.1C125.7,197.6,126.9,198.6,126.9,198.6L126.9,198.6z"/>
	</g>
	<g class="st4">
		<path class="st5" d="M173.3,188.1c0.2-1-0.5-1.9-1.4-2c-0.2,0-0.4-0.1-0.6,0c-0.5,0.3-0.9,0.7-1.2,1.3c0,0,0-0.3,0-0.3
			c0,0.3,0,0.7,0,1c0,0.3,0.2,0.6,0.7,0.7l-0.2,0.5c-0.3-0.3-0.5-0.5-1-0.6c-1.1-0.2-2-1-2.1-2.2c-0.1-0.5,0.3-0.9,0.8-0.7
			c0,0,0,0.5,0,0.5c-0.1-0.1-0.2,0-0.1,0c0.1,0,0.1-0.1,0.2-0.1c1,0,1.5,0.9,1.8,1.8c0.2,0.7,1.2,0.9,1.8,1.2
			c-0.6,0-1.5,0.3-2.2,0.2c-0.7-0.2-1.3-0.8-1.4-1.4c-0.1-0.4-0.1-0.8,0-1.2c0.4-0.7,1.1-1.3,1.9-1.6c0.7-0.2,1.3-0.6,2-0.3
			c1.3,0.4,2,2.1,1.3,3.3C173.6,188.3,173.3,188.1,173.3,188.1L173.3,188.1z"/>
	</g>
	<g class="st4">
		<path class="st5" d="M153.3,194.1c0.2-1-0.5-1.9-1.4-2c-0.2,0-0.4-0.1-0.6,0c-0.5,0.3-0.9,0.7-1.2,1.3c0,0,0-0.3,0-0.3
			c0,0.3,0,0.7,0,1c0,0.3,0.2,0.6,0.7,0.7l-0.2,0.5c-0.3-0.3-0.5-0.5-1-0.6c-1.1-0.2-2-1-2.1-2.2c-0.1-0.5,0.3-0.9,0.8-0.7
			c0,0,0,0.5,0,0.5c-0.1-0.1-0.2,0-0.1,0c0.1,0,0.1-0.1,0.2-0.1c1,0,1.5,0.9,1.8,1.8c0.2,0.7,1.2,0.9,1.8,1.2
			c-0.6,0-1.5,0.3-2.2,0.2c-0.7-0.2-1.3-0.8-1.4-1.4c-0.1-0.4-0.1-0.8,0-1.2c0.4-0.7,1.1-1.3,1.9-1.6c0.7-0.2,1.3-0.6,2-0.3
			c1.3,0.4,2,2.1,1.3,3.3C153.6,194.3,153.3,194.1,153.3,194.1L153.3,194.1z"/>
	</g>
</g>
<g>
</g>
<g>
</g>
<g>
</g>
<g>
</g>
<g>
</g>
<g>
</g>
<g>
</g>
<g>
</g>
<g>
</g>
<g>
</g>
<g>
</g>
<g>
</g>
<g>
</g>
<g>
</g>
<g>
</g>
</svg>
